<?xml version="1.0" encoding="utf-8"?>
<!-- Generator: Adobe Illustrator 24.3.0, SVG Export Plug-In . SVG Version: 6.00 Build 0)  -->
<svg version="1.1" id="b3df86d2-2022-47c6-a781-bb5144daf06b"
	 xmlns="http://www.w3.org/2000/svg" xmlns:xlink="http://www.w3.org/1999/xlink" x="0px" y="0px" viewBox="0 0 794.3 330.7"
	 style="enable-background:new 0 0 794.3 330.7;" xml:space="preserve">
<style type="text/css">
	.st0{fill:#F2F2F2;}
	.st1{fill:#5280A1;}
	.st2{fill:#B97550;}
	.st3{fill:#12264A;}
	.st4{fill:#A0616A;}
	.st5{fill:#92B9A4;}
	.st6{fill:#3F3D56;}
	.st7{fill:#FFFFFF;}
	.st8{fill:#B3B3B3;}
	.st9{fill:#D0CDE1;}
	.st10{opacity:0.2;enable-background:new    ;}
	.st11{fill:#E6E6E6;}
</style>
<ellipse class="st0" cx="397.1" cy="302.5" rx="397.1" ry="28.2"/>
<path class="st1" d="M707.4,318.3c-64.8-11.5-135.6-9.6-209.8,0c33.9-28.6,63.1-57.2,29.2-85.7c66,13.6,75.3,12.2,148.8,0
	C658.5,261.1,690.3,289.7,707.4,318.3z"/>
<path class="st2" d="M691.6,306.1c-55-9.2-115.2-7.7-178.3,0c28.8-22.8,53.6-45.6,24.8-68.4c56.1,10.9,64,9.8,126.4,0
	C650,260.5,677.1,283.3,691.6,306.1z"/>
<circle class="st3" cx="670.6" cy="240" r="29.3"/>
<polygon class="st4" points="537.6,206 557.9,209.4 568.1,238.7 538.7,256.8 504.9,206 536.5,206 "/>
<circle class="st4" cx="595.1" cy="203.8" r="47.4"/>
<path class="st3" d="M333.4,31.2c0,0-115.1,12.4-135.4,10.2s-29.3-4.5-29.3-4.5s-13.5,18.1-6.8,25.9c3.8,4.6,8.4,8.4,13.5,11.3
	c0,0,12.4-3.4,21.4,0s100.4,18.1,116.2,4.5S333.4,31.2,333.4,31.2z"/>
<path class="st3" d="M341.3,282.7c0,0-75.6-21.4-89.1-116.2v-9c0,0-15,26.2-20.3,31.6c-6.2,6.2-28.2,62.1-27.1,67.7
	c1.1,5.6,0,7.9,0,7.9l-32.7-3.4v-10.2c0,0,17.5-52.5,18.6-64.9s43.4-98.7,43.4-98.7s15.8-32.7,42.9,0c27.1,32.7,29.3,55.3,29.3,55.3
	l35,67.7V282.7z"/>
<path class="st3" d="M172.1,33.4L135.9,21c0,0-33.8-24.8-25.9,0s44,79,54.2,73.3s22.4-19.6,19.6-21.7S163,56,172.1,33.4z"/>
<path class="st3" d="M176.4,244.5l-29.1,14.2c0,0-35.2,5.4-15.6,15.6s73.9,21,76.6,11.5s1.6-25.2-1.2-24.8S184.5,263.5,176.4,244.5z
	"/>
<path class="st5" d="M326.6,208.3c0,0-14.7,63.2,10.2,76.7s198.6,15.8,212.1-9s6.8-24.8,6.8-24.8l-36.1-40.6l29.3-2.3
	c0,0,0-9-10.2-10.2s-41.7-12.4-68.8-4.5S427,177.8,427,177.8L326.6,208.3z"/>
<polygon class="st6" points="307.4,10.8 288.3,115.8 420.3,100 444,5.2 "/>
<polygon class="st7" points="311.4,14.8 295.6,108.4 415.7,94.3 438.9,9.2 "/>
<polygon class="st8" points="292.8,116.9 288.3,115.8 286,120.3 322.1,220.7 325.5,219.4 326.6,212.8 "/>
<polygon class="st9" points="288.3,114.6 324.4,219.6 460.9,199.3 420.3,100 "/>
<polygon class="st6" points="306.3,111.3 306.3,116.9 406.7,105.6 405.6,100 "/>
<polygon class="st3" points="308.6,122.5 324.4,166.5 427,154.1 409,112.4 "/>
<path class="st4" d="M437.2,184.6l-3.4-9c0,0-25.9-45.1-39.5-36.1s28.2,53,28.2,53h13.5L437.2,184.6z"/>
<path class="st4" d="M351.4,191.4l-3.4-13.5c0,0-9-41.7,6.8-39.5s20.3,41.7,20.3,41.7l-1.1,9L351.4,191.4z"/>
<path class="st5" d="M378.5,185.7c0,0-29.3-4.5-30.5,2.3s-6.8,108.3,21.4,111.7s168.1,18.1,153.4-16.9s-37.2-30.5-37.2-30.5
	l-95.9,10.2L378.5,185.7z"/>
<polygon class="st5" points="467.1,198.7 437.2,177.8 417.4,193.1 442.3,220.1 "/>
<polygon class="st10" points="387,219 391.5,261.9 469.3,257.4 401.6,256.2 "/>
<circle class="st3" cx="618.5" cy="212.4" r="56.4"/>
<polygon class="st1" points="328.3,47.5 398.3,45.1 405,19.3 332.8,21.5 "/>
<polygon class="st11" points="310.3,62.2 416.3,58.8 417.4,54.3 311.4,58 "/>
<polygon class="st11" points="308,73.5 414.1,70.1 415.2,65.6 309.1,69.3 "/>
<polygon class="st11" points="306.9,82.5 412.9,79.1 414.1,74.6 308,78.3 "/>
</svg>
