<?xml version="1.0" encoding="utf-8"?>
<!-- Generator: Adobe Illustrator 24.3.0, SVG Export Plug-In . SVG Version: 6.00 Build 0)  -->
<svg version="1.1" id="a13b8cba-1f8f-490a-afba-7bfd552ebb8c"
	 xmlns="http://www.w3.org/2000/svg" xmlns:xlink="http://www.w3.org/1999/xlink" x="0px" y="0px" viewBox="0 0 758.1 413.4"
	 style="enable-background:new 0 0 758.1 413.4;" xml:space="preserve">
<style type="text/css">
	.st0{fill:#2F2E41;}
	.st1{fill:#B97550;}
	.st2{fill:#92B9A4;}
	.st3{fill:#3A3A3A;}
	.st4{fill:#0A264C;}
	.st5{fill:#5280A1;}
	.st6{fill:#769FB6;}
	.st7{fill:#B7B7B7;}
</style>
<path class="st0" d="M333.6,142.9l-5,112c0,0,13,106,10,109s-11,9-5,16s28,12,29,8s3-118,3-118l7-135L333.6,142.9z"/>
<path class="st0" d="M333.6,142.9l-5,112c0,0,13,106,10,109s-11,9-5,16s28,12,29,8s3-118,3-118l7-135L333.6,142.9z"/>
<path class="st0" d="M338.6,377.9c0,0-25,19-28,19s-30,9-11,13s65,2,66-4s-3-24.2-3-24.2L338.6,377.9z"/>
<path class="st1" d="M338.6,377.9c0,0-25,19-28,19s-30,9-11,13s65,2,66-4s-3-24.2-3-24.2L338.6,377.9z"/>
<path class="st2" d="M276.6,58.9c0,0-11,4-11,7c0,3-10,41-12,43s-3,11-3,11s-10,23-8,23s19-4,20,0s9-25,9-25l17-34L276.6,58.9z"/>
<path class="st3" d="M242.6,146.9c0,0,3,22,11,24s0-28,0-28L242.6,146.9z"/>
<path class="st3" d="M268.6,46.9c0,0,6,13,9,20s31-18,31-18s-15-11-15-16S268.6,46.9,268.6,46.9z"/>
<path class="st4" d="M36.1,372c6.7,24.8,29.7,40.1,29.7,40.1s12.1-24.8,5.4-49.6s-29.7-40.1-29.7-40.1S29.4,347.2,36.1,372z"/>
<path class="st2" d="M46,366.7c18.4,17.9,20.6,45.5,20.6,45.5s-27.6-1.5-46-19.4S0,347.3,0,347.3S27.6,348.8,46,366.7z"/>
<path class="st5" d="M218.6,412.9c-50.3,0-91-40.7-91-91s40.7-91,91-91s91,40.7,91,91C309.5,372.2,268.8,412.9,218.6,412.9z
	 M218.6,232.9c-49.2,0-89,39.8-89,89s39.8,89,89,89s89-39.8,89-89C307.5,272.8,267.7,233,218.6,232.9z"/>
<path class="st5" d="M498.6,412.9c-50.3,0-91-40.7-91-91s40.7-91,91-91s91,40.7,91,91C589.5,372.2,548.8,412.9,498.6,412.9z
	 M498.6,232.9c-49.2,0-89,39.8-89,89s39.8,89,89,89s89-39.8,89-89l0,0C587.5,272.8,547.7,233,498.6,232.9z"/>
<circle class="st5" cx="218.6" cy="321.9" r="6"/>
<circle class="st5" cx="500.6" cy="321.9" r="6"/>
<polygon class="st5" points="227.5,313.3 225.7,312.6 277.9,189.9 426.2,193 426.4,193.4 499.4,307.4 497.8,308.5 425,194.9 
	279.3,192 "/>
<polygon class="st5" points="383.2,336.1 421.6,200.7 423.6,201.2 386,333.8 486.5,321 486.7,322.9 "/>
<rect x="324.1" y="199.9" transform="matrix(0.7139 -0.7003 0.7003 0.7139 -98.4857 305.9326)" class="st5" width="2" height="147.1"/>
<rect x="418.2" y="178.9" transform="matrix(0.2627 -0.9649 0.9649 0.2627 143.1581 547.1099)" class="st6" width="22.8" height="2"/>
<polygon class="st5" points="281.6,184.2 279.6,183.7 284.3,162.9 267.6,162.9 267.6,149.9 269.6,149.9 269.6,160.9 286.9,160.9 "/>
<path class="st5" d="M395.6,148.9c0,0,0-6,13-3s53,11,56,10s2,6-11,9s-28-4-31-6S395.6,148.9,395.6,148.9z"/>
<path class="st5" d="M384.6,354.9c-11,0-20-9-20-20s9-20,20-20s20,9,20,20C404.6,346,395.6,354.9,384.6,354.9z M384.6,316.9
	c-9.9,0-18,8.1-18,18s8.1,18,18,18s18-8.1,18-18l0,0C402.6,325,394.5,317,384.6,316.9z"/>
<circle class="st3" cx="277.6" cy="32.9" r="24"/>
<path class="st0" d="M353.6,144.9c0,0-69,40-68,53s53,84,53,84s4,21,8,21s29,9,30,3s-8-13-7-17s-44-77-44-77s96.3-36,76.2-67
	S353.6,144.9,353.6,144.9z"/>
<path class="st1" d="M355.6,298.9c0,0-12,3-14,7s-37,17-27,20s68,4,70,2s0-25.2-8-25.1S359.6,305.9,355.6,298.9z"/>
<path class="st2" d="M277.6,69.9l22.5-27.5c0,0,25.5-7.5,36.5,7.5s41,52,51,60s24,39,19,40s-33-11-44-3s-32,9-33,5s-61-71-61-80
	S275,61,275,61L277.6,69.9z"/>
<path class="st5" d="M259.5,138.8l30.2,10.7c1.6,0.6,2.4,2.3,1.8,3.8l0,0c-0.6,1.6-2.3,2.4-3.8,1.8l-30.2-10.7
	c-1.6-0.6-2.4-2.3-1.8-3.8l0,0C256.2,139,258,138.2,259.5,138.8z"/>
<path class="st3" d="M221.6,136.9c0,0-35,10-32,21s35-13,35-13L221.6,136.9z"/>
<path class="st2" d="M312.6,49.9c0,0-14,12-17,26s-18,39-18,39l-61,20c0,0-4,19,2,19s73-14,75-17s45-60,45-60S342.6,45.9,312.6,49.9
	z"/>
<path class="st0" d="M685,412.9l-1.8-0.9c23.1-44.6,10.7-102.6-3.7-143.3c-9.8-27.4-22.3-53.7-37.3-78.7l1.7-1.1
	c15.1,25.1,27.6,51.5,37.5,79.1C696,309.1,708.4,367.6,685,412.9z"/>
<rect x="660.6" y="224" transform="matrix(0.1798 -0.9837 0.9837 0.1798 350.0957 869.8793)" class="st0" width="72.2" height="2"/>
<rect x="647.6" y="237.3" transform="matrix(0.7321 -0.6812 0.6812 0.7321 -21.4359 518.5916)" class="st0" width="2" height="98.4"/>
<rect x="691" y="351.9" transform="matrix(0.5858 -0.8104 0.8104 0.5858 12.1502 729.6556)" class="st0" width="58" height="2"/>
<circle class="st2" cx="708.1" cy="160.4" r="10"/>
<circle class="st0" cx="599.1" cy="237.4" r="10"/>
<circle class="st0" cx="643.1" cy="247.4" r="10"/>
<circle class="st2" cx="623.1" cy="286.4" r="10"/>
<circle class="st0" cx="748.1" cy="311.4" r="10"/>
<circle class="st0" cx="715.1" cy="322.4" r="10"/>
<circle class="st0" cx="738.1" cy="354.4" r="10"/>
<circle class="st0" cx="633.1" cy="172.4" r="10"/>
<path class="st7" d="M261.4,19.2c-1.1-0.2-2.4-0.2-3.2-1.1c-0.4-0.6-0.6-1.4-0.7-2.1c-0.4-3.3-0.7-6.8,0.6-9.7
	c2.1-4.9,7.6-6.5,12.4-6.1c4.8,0.4,9.5,2.1,14.2,1.8c3.5-0.2,7-1.6,10.5-1.2c2.8,0.3,5.3,1.7,7.9,3.1c2.3,1.3,4.7,2.7,6.4,5
	c2.4,3.4,2.9,8,2.9,12.3c0.1,5.1-0.3,10.4-2.4,14.8c-3.1,6.5-10,10.4-16.4,9.2c-0.9-0.1-1.7-0.4-2.4-1c-0.7-0.6-1.2-1.4-1.5-2.2
	c-1.4-2.9-2-6.2-3.9-8.7s-5.7-3.6-7.6-1c-1,1.4-1.1,3.5-2.5,4.5c-1.6,1.1-3.7-0.2-4.9-1.8C267.1,30,268.4,20.5,261.4,19.2z"/>
<path class="st7" d="M317.5,8.5c3.5,1.7,5.9,4.9,8.2,8.1c1.9,2.6,3.9,5.4,4.1,8.6c0.1,1.3-0.1,2.7,0.1,3.9c0.9,4.6,6.6,6.6,8.3,11
	c0.8,2.1,0.6,4.4,0.2,6.5c-0.5,3.1-1.1,6.3-2,9.3c-0.5,1.8-1.1,3.8-0.7,5.6c0.3,1.4,1.1,2.7,1.8,4.1c1.7,3.6,2,7.6,2.1,11.6
	c0.1,4,0.1,8,1.3,11.8s3.8,7.3,7.6,8.6c-1.3,0.8-2.7,1.4-4.2,1.5c-0.2,1.3,0.5,2.5,1.5,3.3c1,0.8,2.2,1.2,3.4,1.6
	c-1.7,1.1-3.7,1.5-5.6,0.9c-1.6-0.5-2.9-1.6-4.1-2.7l-7.1-6.1c-1-0.8-1.8-1.6-2.6-2.5c-4.6-5.7-1.8-14.3-4.4-21.1
	c-2.1-5.5-7.7-10.1-7.2-16c0.1-1.7,0.8-3.2,1.3-4.8c3.8-11.6,2.2-24.3-4.3-34.6c-0.8-1.3-1.7-2.5-3.1-3.2c-2-1-5-0.6-6.1-2.5
	c-0.6-1-0.7-2.8-0.8-4C309,6.6,314,6.8,317.5,8.5z"/>
</svg>
