<?xml version="1.0" encoding="utf-8"?>
<!-- Generator: Adobe Illustrator 24.3.0, SVG Export Plug-In . SVG Version: 6.00 Build 0)  -->
<svg version="1.1" id="a13b8cba-1f8f-490a-afba-7bfd552ebb8c"
	 xmlns="http://www.w3.org/2000/svg" xmlns:xlink="http://www.w3.org/1999/xlink" x="0px" y="0px" viewBox="0 0 758.1 413.4"
	 style="enable-background:new 0 0 758.1 413.4;" xml:space="preserve">
<style type="text/css">
	.st0{fill:#FFC1C7;}
	.st1{fill:#575988;}
	.st2{fill:none;}
	.st3{opacity:0.1;enable-background:new    ;}
	.st4{opacity:0.1;fill:#6C63FF;enable-background:new    ;}
	.st5{fill:#FFC1C8;}
	.st6{fill:#B29A7D;}
	.st7{fill:#FF748F;}
	.st8{fill:#9DBBAE;}
	.st9{fill:#5D618C;}
	.st10{fill:#0A264C;}
	.st11{fill:#769FB6;}
	.st12{fill:#E5D3D3;}
	.st13{fill:#DCE6F2;}
	.st14{fill:#5280A1;}
	.st15{fill:#B97550;}
	.st16{fill:#92B9A4;}
	.st17{opacity:0.1;fill:none;stroke:#000000;stroke-width:2;stroke-miterlimit:10;enable-background:new    ;}
	.st18{opacity:0.1;}
	.st19{fill:#E5D3D3;stroke:#CEAEAE;stroke-miterlimit:10;}
</style>
<g>
	<path class="st0" d="M537.6,363.9l-1.9,2.7l-11.5,17.2l-9.8,3l-7.3-7.1l0.4-4.7l1.8-24.5c0,0-45.2-26.6-49.2-31.6
		c-4-5-19.6-9.5-19.6-9.5s-23.7-11.1-32.6-30.3c-8.9-19.3,14.8-22.3,14.8-22.3l88.7,84.9L537.6,363.9z"/>
	<path class="st1" d="M548.4,373.8L520.3,400c0,0-16.2,3.1-30.6,0.9c-9.3-1.4-7.5-6.5-5-9.9l0.1-0.1c1.4-2,3.6-3.4,6-3.9
		c11.9-2.9,16.1-11.6,16.1-11.6l8.7,7.5l15-17.6l11.1,5.2L548.4,373.8z"/>
	<line class="st2" x1="513.6" y1="395.4" x2="541.7" y2="370.9"/>
	<path class="st3" d="M541.7,370.6l-6.7-3.1l0.6-0.9l1.9-2.7l-26.3-22.3l-88.7-84.9c0,0-23.6,2.9-14.8,22.2s32.6,30.3,32.6,30.3
		s15.5,4.5,19.6,9.4c4,5,49.2,31.6,49.2,31.6l-1.8,24.5l-0.1,1.2l-0.6-0.5c0,0-4.1,8.6-16.1,11.6c-2.4,0.6-4.5,1.9-6,3.9l-0.1,0.1
		c-2.5,3.5-4.2,8.6,5,9.9c14.4,2.2,30.6-0.9,30.6-0.9l28.1-26.2L541.7,370.6z"/>
	<path class="st4" d="M289,15c0,0-5,14,5.4,15.2c1,0.5,2.2,0.2,2.9-0.5c0,0-0.7-0.2-0.1-1.6c0.2-0.5,0.4-1,0.5-1.5
		c0.2-0.7,0.1-1.4-0.2-2.1l0,0c0,0-0.5-4.5-6.5-8c0,0-1.1-1.6-1.5-1.6l0.3,2.7c0,0,2-0.3,3.2,0.7c0,0-3.1-0.9-3.2-0.4
		c0,0.1,0.2,1.4,0.2,1.4s3.4-0.5,5.3,1.2c0,0-3.6-1.5-5.2-0.7l0.5,2c0,0,3.6-0.7,5.8,1.1c0,0-3.8-1.4-5.7-0.7l0.7,1.9
		c0,0,3.5-0.6,5.3,0.9c0,0-4.6-1.2-5.2-0.5c0.3,0.7,0.7,1.4,1.2,2.1c0,0,2.5-0.4,3.5,0.6c0,0-3.1-0.5-3.2-0.2c0,0,1.6,1.9,2.9,2.5
		c-1.2-0.4-2.4-1.2-3.2-2.2c-0.1,0.8,0.1,1.6,0.4,2.3c0,0-1.4-0.6-0.8-2.8c0,0-1.2-1.6-1.2-1.9c0,0-0.8,2.1-0.6,3.6c0,0-1-1.6,0.4-4
		l-0.8-1.9c0,0-1.2,2.7-1.2,4c0,0-0.7-1.7,1-4.5l-0.5-1.9c-0.6,1.2-1.1,2.4-1.5,3.7c0,0-0.4-1.7,1.4-4.3l-0.2-1.3
		c0,0-0.9,1.7-1.1,2.2c-0.2,0.5-0.4,0.5-0.4,0.5c0.1-1.2,0.6-2.3,1.4-3.2C289.3,17.7,289.1,15,289,15z"/>
	<path class="st5" d="M307,304.9c0,0-0.5,7.8-3.4,10.3c0,0-6.1,35.1-11.7,41.5l-0.9,3.6l-23.3-2.6l4.7-31.1l4.4-28.6L307,304.9z"/>
	<path class="st6" d="M307,304.9c0,0-0.5,7.8-3.4,10.3c0,0-6.1,35.1-11.7,41.5l-0.9,3.6l-23.3-2.6l4.7-31.1l4.4-28.6L307,304.9z"/>
	<polygon class="st7" points="281.9,357.1 292,356.6 291.4,372.5 283.8,377.7 269.9,374.6 275,353.5 	"/>
	<polygon class="st8" points="281.9,357.1 292,356.6 291.4,372.5 283.8,377.7 269.9,374.6 275,353.5 	"/>
	<path class="st9" d="M283.8,371.2c0,0,7.9-2.3,11.6,0.7s12.9,11.1,14.7,12.1s28.1,6,19.4,12.3s-31,4.5-31,4.5s-14.5-4.2-15-4.5
		c-0.4-0.2-9.3-4.5-9.6-4.8c-0.3-0.3,2.5-20.5,2.5-20.5L283.8,371.2z"/>
	<path class="st10" d="M283.8,371.2c0,0,7.9-2.3,11.6,0.7s12.9,11.1,14.7,12.1s28.1,6,19.4,12.3s-31,4.5-31,4.5s-14.5-4.2-15-4.5
		c-0.4-0.2-9.3-4.5-9.6-4.8c-0.3-0.3,2.5-20.5,2.5-20.5L283.8,371.2z"/>
	<path class="st11" d="M260.9,161.1l-0.5,28.9l-1.1,61.7l-0.6,0.6c-18.5,16-31.6-0.9-31.6-0.9c-1,1.2-3.1,1.7-5.4,1.9
		c-2.5,0.2-5,0.2-7.5,0l-0.6-0.1c0,0-48.8-60.1-51.8-70.6c-0.6-1.8-0.6-3.7,0.1-5.5c1-2.5,3.3-4,5.5-4.9c1.6-0.6,3.3-1.1,5-1.2
		c0,0-1.4-11.1-7.8-27.4c-3.6-9.2-3.2-13.8-2.2-16.2c0.7-1.8,1.9-2.2,1.9-2.2s2-1.4,5.1-3.7c2.6-1.9,6.1-4.4,9.9-7.2l3.6-2.5
		c13.2-9.4,29.1-20.6,32.3-21.8c0.2-0.1,0.4-0.1,0.6-0.2c6.7-1.6,29,1.7,29,1.7L260.9,161.1z"/>
	<path class="st2" d="M260.9,161.1l-0.5,28.9c-22.1-6.5-42.6-49.7-45.4-53.2c-2.3-3,0.1-35.9,0.9-47.1c6.7-1.6,29,1.7,29,1.7
		L260.9,161.1z"/>
	<path class="st11" d="M260.9,161.1l-0.5,28.9c-22.1-6.5-42.6-49.7-45.4-53.2c-2.3-3,0.1-35.9,0.9-47.1c6.7-1.6,29,1.7,29,1.7
		L260.9,161.1z"/>
	<path class="st0" d="M514.7,104.9c0,0-17.3,8.8-19.4,43.6c0,0-2.8,17.7-4.4,20.8c-1.6,3.1-9,32.5-8.1,36.1c0,0-1.6,3.6-7.3,2
		c-5.8-1.6-36.8-6.3-43.8-11.1l-19.3-9.2c0,0-37.6-26.6-45.5-3.7c-7.9,22.9,37.2,21.9,37.2,21.9l21.3,9.9l64.5,21.3
		c0,0,8.6,3.9,14.3-8.6c3.7-7.8,8-15.3,13.1-22.4c0,0,13.1-36.7,12.9-42.9s14-21,14-21s2.8-39.2-20.2-38.4L514.7,104.9z"/>
	<path class="st12" d="M514.7,104.9c0,0-17.3,8.8-19.4,43.6c0,0-2.8,17.7-4.4,20.8c-1.6,3.1-9,32.5-8.1,36.1c0,0-1.6,3.6-7.3,2
		c-5.8-1.6-36.8-6.3-43.8-11.1l-19.3-9.2c0,0-37.6-26.6-45.5-3.7c-7.9,22.9,37.2,21.9,37.2,21.9l21.3,9.9l64.5,21.3
		c0,0,8.6,3.9,14.3-8.6c3.7-7.8,8-15.3,13.1-22.4c0,0,13.1-36.7,12.9-42.9s14-21,14-21s2.8-39.2-20.2-38.4L514.7,104.9z"/>
	<path class="st5" d="M332.2,135.1c0.9,1.1,5.3,3.4,5.3,3.4s14.3,17,20,21.4c5.7,4.4,24.6,21,20.8,27.3c-3.8,6.3-8.1,4.9-8.1,4.9
		l-33.6-23.4c0,0-11.8-8.5-14.2-12.5c-2.4-4-5.3-12.5-5.3-12.5L332.2,135.1z"/>
	<path class="st6" d="M332.2,135.1c0.9,1.1,5.3,3.4,5.3,3.4s14.3,17,20,21.4c5.7,4.4,24.6,21,20.8,27.3c-3.8,6.3-8.1,4.9-8.1,4.9
		l-33.6-23.4c0,0-11.8-8.5-14.2-12.5c-2.4-4-5.3-12.5-5.3-12.5L332.2,135.1z"/>
	<polygon class="st13" points="313.4,106 337.5,138.4 315.8,146.9 306.7,119.8 	"/>
	<polygon class="st14" points="313.4,106 337.5,138.4 315.8,146.9 306.7,119.8 	"/>
	<path class="st1" d="M319.7,188.7l4.4,6.3l3.7,95.4c0,0,0.3,9-2.4,11.7s-24.2,0.9-24.2,0.9s0.7-97.3,1.1-99.2
		C302.6,202,319.7,188.7,319.7,188.7z"/>
	<path class="st15" d="M319.7,188.7l4.4,6.3l3.7,95.4c0,0,0.3,9-2.4,11.7s-24.2,0.9-24.2,0.9s0.7-97.3,1.1-99.2
		C302.6,202,319.7,188.7,319.7,188.7z"/>
	<path class="st6" d="M290.6,309.3c-1.4,3.5-3,6.8-5,10.1c0,0-4,23.1-5.8,25.2c-1.2,1.6-1.8,13.2-2,19.2c-0.1,2.2-0.1,3.7-0.1,3.7
		L254,378.8l-0.1-15c0,0,0-0.1,0-0.2l0,0c-0.1-3.3-1.9-41.5,1.7-43.8c2.1-1.3,4.1-6.8,5.5-11.4c1.1-3.5,1.7-6.4,1.7-6.4
		s26.4-1.7,28.6,1.1C292.1,304.2,291.6,306.6,290.6,309.3z"/>
	<path class="st3" d="M290.6,309.3c-10.7-0.2-24.1-0.7-29.5-0.9c1.1-3.5,1.7-6.4,1.7-6.4s26.4-1.7,28.6,1.1
		C292.1,304.2,291.6,306.6,290.6,309.3z"/>
	<path class="st15" d="M259.4,167.8c0,0-7.3,38.9-5.9,63.9c1.4,25.1-1.1,43.5,2,50.9s3.1,23.9,3.1,23.9s42.3,1.6,46.6,0.9
		c4.4-0.6,4.2-3.9,4.2-3.9s-3-25.8-0.1-33.9c2.9-8.1,2.4-32.8,2.4-32.8l11.8-39.8c0,0,3.6-17.9-3.9-25.2
		C312.1,164.7,259.4,167.8,259.4,167.8z"/>
	<path class="st12" d="M510.2,373.2l-1.9,2.7l-11.5,17.2l-9.8,3l-7.3-7.1l0.4-4.7l1.8-24.5c0,0-45.2-26.6-49.2-31.6
		c-4-5-19.6-9.5-19.6-9.5s-23.7-11.1-32.6-30.3c-8.9-19.3,14.8-22.3,14.8-22.3l88.7,84.9L510.2,373.2z"/>
	<polygon class="st3" points="508.3,375.9 496.8,393 487,396 479.8,388.8 480.1,384.1 488.1,391 503.2,373.4 	"/>
	<path class="st10" d="M521.1,383.1L493,409.4c0,0-16.2,3.1-30.6,0.9c-9.3-1.4-7.5-6.5-5-9.9l0.1-0.1c1.4-2,3.6-3.4,6-3.9
		c11.9-2.9,16.1-11.6,16.1-11.6l8.7,7.5l15-17.6l11.1,5.2L521.1,383.1z"/>
	<path class="st6" d="M288.8,68.5c-2.3,1.1-3.4,4.7-3.7,8.7c-0.7,6.9,0.4,15.2,0.4,15.2s-31.1-8.5-27.8-10.1
		c1.9-0.9,2.9-7.9,3.4-13.6c0.4-4.2,0.5-7.8,0.5-7.8S295,65.4,288.8,68.5z"/>
	<path class="st12" d="M536.3,106.3c0,0-37.7,35.6-36.5,25.3c0.2-1.4-0.3-3.4-1.3-5.8c-3.5-8.4-13.1-21.4-20.6-31
		c-5.5-7-9.9-12.1-9.9-12.1s46.8-39.4,43.1-17c-0.8,5.1-0.1,10.3,2.1,15c4.7,11,15,19.6,20.2,23.4
		C535.1,105.5,536.3,106.3,536.3,106.3z"/>
	<path class="st3" d="M505.8,72.5c-0.7,0.9-3.2,3.8-3.9,4.5c-7.1,7.4-8,18-19.1,18c-1.7,0-3.3-0.1-5-0.3c-5.5-7-9.9-12.1-9.9-12.1
		s46.8-39.4,43.1-17C510.1,71,503.8,67.9,505.8,72.5z"/>
	<path class="st12" d="M521.8,54.9c0,21.5-17.4,39-39,39c-21.5,0-39-17.4-39-39c0-21.5,17.4-39,39-39l0,0
		c21.4-0.1,38.9,17.2,39,38.7C521.8,54.7,521.8,54.8,521.8,54.9z"/>
	<path class="st3" d="M536.3,106.3c0,0-37.7,35.6-36.5,25.3c0.2-1.4-0.3-3.4-1.3-5.8l5.5-12.9c6.7-5.8,15.2-9.1,24.1-9.1
		c1.6,0,3.2,0.1,4.8,0.3l0.3,0.1C535.1,105.5,536.3,106.3,536.3,106.3z"/>
	<path class="st16" d="M580.6,367.4c0,0-26.7,42.7-26.7,46c0,0-30.3-11.8-41-14.3c-10.8-2.5-21-25.1-21-25.1s-28.6-26.9-39.8-30.6
		c-9.5-3.2-55.1-67.5-68.7-86.9c-3.4-4.8-3.3-11.4,0.3-16.2l0.2-0.3c6.6-4.9,17.3-11.3,30.7-11.4c2.2,0,5.8,0.1,20.6,4.5
		c32.6,9.7,48.9,14.6,53.7,17.6c1.4,0.9,6.2,2.8,10.3,2.4c1.9-0.2,2.9-1.9,3.5-3.7c0.4-1.5,0.7-3,0.7-4.6c0,0,0-0.1,0-0.3
		c-0.5-4-1.4-7.8-2.5-11.7c-2-6.8-5.5-14.9-11.2-18.7c-4.8-3.2-8.6-10.2-10.5-18.3c-2.7-11-2.1-24.1,3.9-32.6l5.7-13.6l9.6-22.7
		l5.3-12.6c6.7-5.8,15.2-9.1,24.1-9.1c1.6,0,3.2,0.1,4.8,0.3c4.1,0.6,7.7,1.8,9.2,4.2c4.5,7.5,14.9,21.1,17,34.8
		c2.1,13.7-0.4,36.1,6.7,44.3c7.1,8.3,11.2,28.2,18.7,32.3c7.5,4.2-12,12.9-12,12.9l0.1,1.3l0.3,5.7c0,0,0.1,0.1,0.4,0.5
		C577.5,246.8,616.6,298.4,580.6,367.4z"/>
	<path class="st10" d="M573.1,241.4c-8.1,1.7-26,5.4-34,7.1l-1.4,0.3c-0.5,0.1-1,0.2-1.6,0.2c-8,1.1-25.4,0.6-33.3,0.2
		c0.4-1.5,0.7-3,0.7-4.6c0,0,0-0.1,0-0.3c6-0.4,20.4-1.6,32.6-4c1-0.2,2-0.4,3-0.6c1.4-0.3,2.7-0.7,4-1.1c11-3.1,22.6-3.5,29.2-3.5
		l0.3,5.7C572.8,241,572.9,241.1,573.1,241.4z"/>
	<path class="st8" d="M539.1,239.7v8.8l-1.4,0.3c-0.5,0.1-1,0.2-1.6,0.2v-8.6C537.2,240.2,538.1,239.9,539.1,239.7z"/>
	<path class="st3" d="M546.7,256.5c0,0-16.7,38-26.7,41.8c-10.1,3.7-35.3,16.9-35.3,16.9s14.4,12.7,29.5-1.2
		C529.3,300,551.1,262.8,546.7,256.5z"/>
	<path class="st3" d="M564.9,251.5c0,0,1.6,14.4-0.6,17.1S564.9,251.5,564.9,251.5z"/>
	<path class="st3" d="M573.9,260.9c0,0,8.4,88-33.3,88.4C540.7,349.4,579.7,310.6,573.9,260.9z"/>
	<path class="st3" d="M584.5,282c0,0,11.9,46.1-3.7,51.5C580.8,333.5,589,309.6,584.5,282z"/>
	<path class="st3" d="M510,270.2c-0.7,0-32.3,5.5-25.5,9.8C491.4,284.4,510,270.2,510,270.2z"/>
	<path class="st3" d="M531.8,207.9c0,0,25.8,22.9,20.8,25.4"/>
	<path class="st3" d="M529.6,215.3c0,0,14.9,18.3,13.2,19.4"/>
	<path class="st3" d="M561.5,212.4c0,0,6.8,8.6,5.7,10.4"/>
	<path class="st3" d="M568.3,207.9c0,0,9.8,7.6,7.6,10.6"/>
	<path class="st3" d="M418.5,229.4c19.6,6,53.5,16.5,70.6,21.1c-2.2,1.2-4.9,1.3-7.3,0.4l-64.5-21.3l-2.5-1.2
		C416,228.8,417.3,229.1,418.5,229.4z"/>
	<path class="st3" d="M527.6,166c-3,4-5.7,8.4-5.6,11.1c0.1,1.9-1.2,7-3,12.9c-4.5,14.9-10.5,29.2-18,42.7
		c-2-6.8-5.5-14.9-11.2-18.7c-4.8-3.2-8.6-10.2-10.5-18.3c1.5-5.9,2.9-10.9,3.5-12.1c1.6-3.1,4.4-20.8,4.4-20.8
		c0.2-4.5,0.9-9,1.7-13.4c2.2-10.8,6.1-18,9.6-22.7c4.2-5.7,8.1-7.6,8.1-7.6l9.2-1.4c10.6-0.4,15.7,7.7,18.2,16.5
		C537,145.2,534.5,157,527.6,166z"/>
	<path class="st3" d="M288.8,68.5c-2.3,1.1-3.4,4.7-3.7,8.7c-0.4,0-0.8,0-1.2,0c-8.3,0-16.4-3-22.7-8.6c0.4-4.2,0.5-7.8,0.5-7.8
		S295,65.4,288.8,68.5z"/>
	<path class="st6" d="M318.1,41.8c0,18.9-15.3,34.2-34.2,34.2s-34.2-15.3-34.2-34.2S265,7.6,283.9,7.6
		C302.8,7.7,318.1,23,318.1,41.8z"/>
	<path class="st3" d="M329.6,175.7c0,0-17.9,7.1-23.5,9.6c-5.6,2.5-37.6-3.2-37.6-3.2s-16.7-8.4-15.2-16.8
		c1.4-8.4-13.4-35.9-13.4-35.9s-0.5-24.4,6.1-29.1c6.6-4.7,4-14.4,4-14.4s0-0.3,0.1-0.9c0.4-2.1,1.9-7.3,6.7-9.1c1-0.2,2-0.3,3-0.1
		c4.7,0.7,12.2,4.2,18.6,7.3c5.2,2.6,9.6,5.1,10.5,5.7l0.2,0.1c0,0,2.4,5.5,5.1,3.7c2.7-1.7,16.8,6.2,19.4,9.8
		c2.6,3.6,0.7,20.4,0.3,24.6c-0.4,4.2,2.7,16.7,6.1,23.7C323.5,158,329.6,175.7,329.6,175.7z"/>
	<path class="st14" d="M329.6,173.9c0,0-17.9,7.1-23.5,9.6c-5.6,2.5-37.6-3.2-37.6-3.2s-16.7-8.4-15.2-16.8
		c1.4-8.4-13.4-35.9-13.4-35.9s-0.5-24.4,6.1-29.1c6.6-4.7,4-14.4,4-14.4s0-0.3,0.1-0.9c0.4-2.1,1.9-7.3,6.7-9.1c1-0.2,2-0.3,3-0.1
		c4.7,0.7,12.2,4.2,18.6,7.3c5.2,2.6,9.6,5.1,10.5,5.7l0.2,0.1c0,0,2.4,5.5,5.1,3.7s16.8,6.2,19.4,9.8c2.6,3.6,0.7,20.4,0.3,24.6
		c-0.4,4.2,2.7,16.7,6.1,23.7S329.6,173.9,329.6,173.9z"/>
	<path class="st1" d="M271.7,150c0,0-15.4,24.9-17.8,26.2l0.9,8.7c0,0,21.9-4.5,23.2-10.7c1.3-6.2,0.6-24.6,0.6-24.6L271.7,150z"/>
	<path class="st8" d="M271.7,150c0,0-15.4,24.9-17.8,26.2l0.9,8.7c0,0,21.9-4.5,23.2-10.7c1.3-6.2,0.6-24.6,0.6-24.6L271.7,150z"/>
	<path class="st3" d="M293.3,118.3c0,0,2.7,10.5,7,14.1S293.3,118.3,293.3,118.3z"/>
	<path class="st6" d="M266.6,146c0.4,0.7,13.6,18.6,27.4,25.2c13.8,6.6,44.7,14.4,44.7,14.4s25,4.7,29.3,6.5s9.7-6.2-17.1-17.7
		s-32-16.5-32-16.5s-23.3-11.4-27-17S266.6,146,266.6,146z"/>
	<path class="st3" d="M276.5,232.9c0.5-0.3,11.7-12.3,13.1-7.1C290.9,230.9,276.5,232.9,276.5,232.9z"/>
	<path class="st3" d="M283,209.3c-0.1,0.5-1.7,13.7-6.2,15.2"/>
	<path class="st3" d="M287.7,212.9c0,0-4,14.2-9.2,15"/>
	<path class="st3" d="M267.1,255.3c0,0,6.8,0.1,7.8-4.2"/>
	<path class="st3" d="M276.5,283.7c0.9,0.1,15.5,9.4,11.8,11.3C284.5,296.8,276.5,283.7,276.5,283.7z"/>
	<path class="st3" d="M277.8,362.4v1.4c-0.1,2.2-0.1,3.7-0.1,3.7l-23.7,11.3l-0.1-15c0,0,0-0.1,0-0.2l0,0v-1l9.5,0.3L277.8,362.4z"
		/>
	<polygon class="st8" points="289.3,382.3 264.6,391.7 253.5,385.1 253.6,376.2 253.9,356.9 265.8,357.3 283.7,356.6 283.7,370.1 	
		"/>
	<path class="st3" d="M282.2,384.1l-19.8,7.6l-8.9-5.3l0.1-7.2c2.6,3.4,6.7,5.5,10.9,5.7c0,0,7-8.7,11.2-11.3
		c0.6-0.4,1.4-0.4,2.1-0.2v1L282.2,384.1z"/>
	<path class="st10" d="M264.5,386.1c0,0-8.1,0.1-12.1-7.6c0,0-5.8,5.6-5.8,17.3c-0.1,11.7,0.1,12.1,0.1,12.1s23.3-0.9,27.6,0.7
		c4.4,1.6,40.8-1.4,40.8-1.4s2.4-6.3-8.6-8.6c-11-2.2-20.1-14-20.5-14.5s-6.1-11.8-10.3-9.3S264.5,386.1,264.5,386.1z"/>
	<path class="st3" d="M286,4.1l-2.3-0.3l1.4-0.1L286,4.1z"/>
	<path class="st3" d="M318.1,41.8c0,2.7-0.3,5.3-0.9,7.9c-0.5-0.1-1-0.4-1.5-0.6c-0.7-0.4-1.3-1-2.1-0.9c-0.4,0.1-0.9,0.2-1.2,0.6
		c-3.7,2.7-6.4,7.1-10.9,8c0.4-1.3,0.5-2.7,0.2-4c-1.9,1.9-4.7,2.8-7.4,2.4c0.3-0.7,0.4-1.6,0.1-2.4c-3.2,1.7-6.4,3.3-9.8,4.5
		c-0.1-0.6-0.2-1.2-0.4-1.8c-4.8,2.3-4.4,10.2-9.1,12.6c-2.9,1.4-6.8,0.4-8.8,2.9c-0.1,0.1-0.1,0.2-0.2,0.3
		c-16.1-9.9-21.2-30.9-11.3-47s30.9-21.2,47-11.3C311.8,18.9,318.1,29.9,318.1,41.8L318.1,41.8z"/>
	<path class="st10" d="M286,2.8c-2.9-1.2-5.8-2.4-8.9-2.7c-3.1-0.4-6.4,0.2-8.8,2.3c-1.9,1.6-3.4,4.3-5.8,4.4
		c-1.2,0.1-2.4-0.6-3.4-1.1c-3.1-1.5-7-2.4-9.8-0.4c-2.2,1.6-3.1,4.5-3.4,7.2c-0.4,2.7-0.4,5.6-1.7,8c-0.8,1.5-2,2.7-3,4.1
		c-2.5,3.5-3.8,7.7-3.4,12c0.2,2.1,0.7,4.2,1.4,6.2l2.5,9c1.3,4.5,2.6,9.1,5,13.2s6.2,7.5,10.8,8.6c2.8,0.6,6.2,0.1,7.7-2.2
		c0.4-0.6,0.6-1.3,1.1-1.9c1.9-2.5,6-1.5,8.8-2.9c4.8-2.3,4.4-10.2,9.1-12.6l0.4,1.8c3.4-1.2,6.7-2.8,9.8-4.5
		c0.2,0.8,0.2,1.7-0.1,2.4c2.7,0.4,5.4-0.4,7.3-2.4c0.3,1.4,0.2,2.7-0.2,4c4.5-0.9,7.2-5.3,10.9-8c0.4-0.3,0.8-0.5,1.2-0.6
		c0.8-0.1,1.4,0.5,2.1,0.9c2.4,1.4,5.4,1.1,7.3-0.9c1.9-2.1,2.1-5.4,1.4-8.2c-0.6-2.8-1.9-5.5-2.1-8.4c-0.4-3.9,1-8-0.3-11.7
		c-1.1-3.2-3.9-5.5-6.8-7c-3-1.5-6.2-2.4-9.3-3.7c-2.9-1.3-5.6-3-8.6-4c-4.4-1.5-9.1-1.4-13.7-1.2"/>
	<path class="st8" d="M286.5,118.6c0,0,5-33.4-37.6-31.8l-21.4,2.9c0,0,20.5,3.7,25.4,4.2l0.5,0.1
		C257.9,94.8,273.7,93.7,286.5,118.6z"/>
	<path class="st3" d="M259.4,252.1v-0.4C276.8,236.6,259.4,252.1,259.4,252.1z"/>
	<path class="st8" d="M221.8,253.3c-2.5,0.2-5,0.2-7.5,0L162,177.1c1-2.5,3.3-4,5.5-4.9L221.8,253.3z"/>
	<path class="st8" d="M187.9,171.7l-2.5,3c0,0-18.8-31.3-22.9-47.2c0.7-1.8,1.9-2.2,1.9-2.2s2-1.4,5.1-3.7
		C170.7,129,174.7,147.3,187.9,171.7z"/>
	<path class="st8" d="M201.7,162.1l-5,2.8c-13.6-15.9-14.7-42.6-14.6-53.2l3.6-2.5C186.2,123,201.7,162.1,201.7,162.1z"/>
	<path class="st8" d="M214.8,159.3c-0.1,2-5.9,22.5,2.5,26C225.6,188.7,214.8,159.3,214.8,159.3z"/>
	<path class="st8" d="M232.8,194.6c0.3,1.1,3.1,36.6,9.2,33.8c6.1-2.8,2.8-43.2,2.8-43.2L232.8,194.6z"/>
	<path class="st3" d="M521.8,54.9c0,10.1-3.9,19.7-10.9,27c-2.9,0.6-5.8,0.7-8.6,0.1c-1.5-0.2-2.9-0.7-4-1.6
		c-1.1-1.1-2.1-2.4-2.6-3.8c-2.3-4.9-3.4-10.5-6.6-14.7s-9.6-6-12.7-1.7c-1.7,2.3-1.9,5.9-4.2,7.5c-2.7,1.9-6.2-0.3-8.3-3.1
		c-6.2-8.1-4-24-15.8-26.2l-0.5-0.1c9.1-19.5,32.3-27.9,51.8-18.7C513,26,521.8,39.8,521.8,54.9z"/>
	<path class="st10" d="M448.6,37.8c-1.9-0.4-4.1-0.3-5.4-1.9c-0.7-1-1-2.3-1.1-3.6c-0.7-5.5-1.2-11.4,1-16.4
		c3.6-8.2,12.9-10.9,20.9-10.3c8.1,0.6,16,3.6,24,3.1c5.9-0.4,11.7-2.7,17.7-2c4.7,0.5,9,2.9,13.2,5.2c3.9,2.2,8,4.6,10.8,8.5
		c4.1,5.7,4.8,13.4,5,20.7c0.1,8.6-0.5,17.5-4,25c-5.2,10.9-16.8,17.5-27.7,15.5c-1.5-0.2-2.9-0.7-4-1.6c-1.1-1.1-2.1-2.4-2.6-3.8
		c-2.3-4.9-3.4-10.5-6.7-14.7c-3.2-4.2-9.6-6-12.7-1.7c-1.7,2.3-1.9,5.9-4.2,7.5c-2.7,1.9-6.2-0.4-8.3-3.1
		C458.2,55.9,460.4,40,448.6,37.8z"/>
	<path class="st10" d="M543.2,19.7c5.9,2.8,10,8.3,13.9,13.6c3.2,4.4,6.5,9.1,7,14.5c0.2,2.2-0.2,4.5,0.2,6.7
		c1.5,7.7,11.2,11.2,14.1,18.5c1.3,3.5,0.9,7.3,0.3,11c-0.8,5.3-1.9,10.6-3.4,15.7c-0.8,3.1-1.8,6.3-1.1,9.5c0.5,2.4,1.9,4.6,3,6.8
		c2.9,6,3.4,12.9,3.5,19.6c0.2,6.7,0.2,13.4,2.2,19.8c2,6.4,6.4,12.4,12.7,14.4c-2.1,1.4-4.6,2.4-7.1,2.5c-0.4,2.1,0.8,4.2,2.5,5.5
		c1.7,1.3,3.7,2,5.7,2.7c-2.8,1.9-6.3,2.5-9.5,1.5c-2.7-0.9-4.8-2.7-7-4.5l-11.9-10.3c-1.6-1.3-3-2.7-4.4-4.3
		c-7.7-9.6-3.1-24.1-7.4-35.6c-3.5-9.3-12.9-17-12.1-26.9c0.2-2.8,1.3-5.4,2.2-8.1c6.4-19.5,3.8-41-7.3-58.3
		c-1.4-2.1-2.9-4.2-5.2-5.3c-3.4-1.6-8.4-0.9-10.3-4.2c-1.1-1.7-1.2-4.8-1.4-6.7C528.8,16.5,537.3,16.9,543.2,19.7z"/>
	<path class="st3" d="M240.5,125c2.9-19.1,26.8-26,39.5-11.4c3.7,4.2,6.9,8.9,8.8,13.6c6.2,15.7,6.7,17.1,6.7,17.1
		s-38.4,7.5-38,13.1L240,129.4C239.9,129.4,240.1,127.7,240.5,125z"/>
	<path class="st14" d="M240.5,123.1c2.9-19.1,26.8-26,39.5-11.4c3.7,4.2,6.9,8.9,8.8,13.6c6.2,15.7,6.7,17.1,6.7,17.1
		s-38.4,7.5-38,13.1L240,127.5C239.9,127.5,240.1,125.8,240.5,123.1z"/>
	<path class="st3" d="M251.3,98.6c0.5,0.7,18.8,23.1,28.5,26.4C289.5,128.2,251.3,98.6,251.3,98.6z"/>
	<path class="st3" d="M172.5,170.9c0,0,48.5,57.2,54.7,80.4"/>
	<path class="st17" d="M174.4,118.1c0,0,10.6,54.7,31.1,77.7s41.7,62.2,41.7,62.2"/>
	<g class="st18">
		<path d="M324.2,38.5c0.1,1.8-0.6,3.6-1.7,5c-1.9,2-5,2.4-7.3,0.9c-0.7-0.4-1.3-1-2.1-0.9c-0.4,0.1-0.9,0.2-1.2,0.6
			c-3.5,2.5-6.2,6.7-10.3,7.8c0.1,1.1,0.1,2.2-0.3,3.2c4.5-0.9,7.2-5.3,10.9-8c0.4-0.3,0.8-0.5,1.2-0.6c0.8-0.1,1.4,0.5,2.1,0.9
			c2.4,1.4,5.4,1.1,7.3-0.9C324.6,44.5,324.8,41.3,324.2,38.5z"/>
		<path d="M321.7,26.8c0.1,0.5,0.1,1,0.2,1.5c0-3.1,0.7-6.3,0-9.3C322,21.6,321.4,24.3,321.7,26.8z"/>
		<path d="M301,47.9c-1.9,1.9-4.7,2.8-7.3,2.4c0.3-0.8,0.4-1.6,0.1-2.4c-3.2,1.7-6.4,3.3-9.8,4.5l-0.4-1.8
			c-4.8,2.3-4.4,10.2-9.1,12.6c-2.9,1.4-6.8,0.4-8.8,2.9c-0.4,0.6-0.7,1.2-1.1,1.9c-1.6,2.4-4.9,2.9-7.7,2.2
			c-4.6-1.1-8.4-4.5-10.8-8.6c-2.4-4-3.7-8.6-5-13.2l-2.5-9c-0.4-1.5-0.9-3-1.1-4.5c0,0.4,0,0.9,0.1,1.4c0.2,2.1,0.7,4.2,1.4,6.2
			l2.5,9c1.3,4.5,2.6,9.1,5,13.2s6.2,7.5,10.8,8.6c2.8,0.6,6.2,0.1,7.7-2.2c0.4-0.6,0.6-1.3,1.1-1.9c1.9-2.5,6-1.5,8.8-2.9
			c4.8-2.3,4.4-10.2,9.1-12.6l0.4,1.8c3.4-1.2,6.7-2.8,9.8-4.5c0.2,0.8,0.2,1.7-0.1,2.4c2.5,0.4,5.2-0.4,7.1-2.1
			C301.3,50.2,301.3,49,301,47.9z"/>
	</g>
	<path class="st3" d="M289,88.9c-3.4,1.9-11.1,6.2-12.7,5.5c-1.7-0.7-20-7.2-26.1-9.3c0.4-2.1,1.9-7.3,6.7-9.1c1-0.2,2-0.3,3-0.1
		l18.6,7.3C283.7,85.9,288,88.3,289,88.9z"/>
	<path class="st2" d="M289,87.1c-3.4,1.9-11.1,6.2-12.7,5.5c-1.7-0.7-20-7.2-26.1-9.3c0.4-2.1,1.9-7.3,6.7-9.1c1-0.2,2-0.3,3-0.1
		l18.6,7.3C283.7,84,288,86.5,289,87.1z"/>
	<path class="st3" d="M534.6,40.2c-0.2,7-1.1,14-4,20.1c-5.2,10.9-16.8,17.5-27.7,15.5c-1.5-0.2-2.9-0.7-4-1.6
		c-1.1-1.1-2.1-2.4-2.6-3.8c-2.3-4.9-3.4-10.5-6.7-14.7s-9.6-6-12.7-1.7c-1.7,2.3-1.9,5.9-4.2,7.5c-2.7,1.9-6.2-0.4-8.3-3.1
		c-6.2-8.1-4-24-15.8-26.2c-1.9-0.4-4.1-0.3-5.4-1.9c-0.7-1-1-2.3-1.1-3.6c-0.2-1.5-0.4-3-0.5-4.5c-0.2,3.4-0.1,6.8,0.5,10.1
		c0.2,1.2,0.4,2.6,1.1,3.6c1.2,1.6,3.5,1.6,5.4,1.9c11.7,2.2,9.6,18.1,15.8,26.2c2.1,2.7,5.6,5,8.3,3.1c2.2-1.6,2.5-5.2,4.2-7.5
		c3-4.3,9.5-2.5,12.7,1.7s4.4,9.8,6.7,14.7c0.6,1.4,1.5,2.7,2.6,3.8c1.2,0.9,2.5,1.4,4,1.6c10.8,1.9,22.4-4.5,27.7-15.5
		c3.6-7.5,4.2-16.4,4-25C534.6,40.7,534.6,40.4,534.6,40.2z"/>
	<g>
		<path class="st10" d="M575.2,70c1.3,3.5,0.9,7.3,0.3,11c-0.8,5.3-1.9,10.6-3.4,15.7c-0.8,3.1-1.8,6.3-1.1,9.5
			c0.5,2.4,1.9,4.6,3,6.8c2.9,6,3.4,12.9,3.5,19.6c0.2,6.7,0.2,13.4,2.2,19.8c1.3,4.4,3.8,8.2,7.1,11.3c-1.8-2.4-3.2-5-4-7.9
			c-2-6.3-2-13.2-2.2-19.8c-0.2-6.7-0.7-13.5-3.5-19.5c-1.1-2.2-2.5-4.4-3-6.8c-0.6-3.2,0.3-6.4,1.1-9.5c1.4-5.2,2.5-10.4,3.4-15.8
			c0.6-3.7,1-7.5-0.3-11c-1.1-2.8-3.1-5-5.3-7.1C574,67.4,574.7,68.7,575.2,70z"/>
		<path class="st10" d="M595.7,170.3c-1.7-0.6-3.2-1.4-4.6-2.4c-1.7,0.9-3.7,1.5-5.7,1.6c-0.4,2.1,0.8,4.2,2.5,5.5
			c0.3,0.2,0.7,0.5,1.1,0.7c-0.4-0.9-0.6-1.9-0.4-2.9C591.1,172.6,593.5,171.8,595.7,170.3z"/>
		<path class="st10" d="M531,25.8c-2.4-1.1-5.4-1.2-7.8-2.1c0.1,0.4,0.3,0.9,0.5,1.2c2,3.3,6.9,2.5,10.3,4.2
			c0.4,0.2,0.9,0.5,1.2,0.7C534.3,28.3,532.8,26.8,531,25.8z"/>
		<path class="st10" d="M591.6,178.8c-2.4,1-5,1.1-7.5,0.4c-2.7-0.9-4.8-2.7-7-4.5l-11.9-10.3c-0.6-0.5-1.1-1-1.7-1.5
			c0.1,0.2,0.2,0.3,0.4,0.5c1.3,1.6,2.8,3,4.4,4.3l11.9,10.3c2.1,1.8,4.3,3.7,7,4.5c3.2,1.1,6.8,0.5,9.5-1.5
			C594.9,180.6,593.1,179.8,591.6,178.8z"/>
		<path class="st10" d="M554,30.3c3.2,4.4,6.5,9.1,7,14.5c0.2,2.2-0.2,4.5,0.2,6.7c0.7,3.5,3,6.2,5.7,8.6c-1.3-1.6-2.2-3.4-2.6-5.3
			c-0.4-2.2-0.1-4.5-0.2-6.7c-0.4-5.4-3.7-10.1-7-14.5c-2.4-3.2-4.8-6.5-7.6-9.2C551.1,26.3,552.6,28.3,554,30.3z"/>
	</g>
	<path class="st3" d="M526.8,17.4c0,0-3.7,6.2,6.8,11.4l0.6-1.7L526.8,17.4z"/>
	<path class="st8" d="M526.1,17.4c0,0-3.7,6.2,6.8,11.4l0.6-1.7L526.1,17.4z"/>
	<path class="st19" d="M504.7,116.7c0,0-17.3,8.8-19.4,43.6c0,0-2.8,17.7-4.4,20.8c-1.6,3.1-9,32.5-8.1,36.1c0,0-1.6,3.6-7.3,2
		c-5.8-1.6-36.8-6.3-43.8-11.1l-19.3-9.2c0,0-37.6-26.6-45.5-3.7s37.2,21.9,37.2,21.9l21.3,9.9l64.5,21.3c0,0,8.6,3.9,14.3-8.6
		c1.4-3.1,3-6.1,4.5-8.8c7.8-13.8,14-28.5,18.5-43.6c1.7-5.9,3-10.9,3-12.9c-0.1-2.7,2.6-7.1,5.6-11.1c6.8-9.1,9.3-20.8,6.3-31.8
		c-2.5-8.8-7.6-16.8-18.2-16.5L504.7,116.7z"/>
</g>
</svg>
