<?xml version="1.0" encoding="utf-8"?>
<!-- Generator: Adobe Illustrator 24.3.0, SVG Export Plug-In . SVG Version: 6.00 Build 0)  -->
<svg version="1.1" id="b3610dfe-b8fa-4701-9393-2c36a069038b"
	 xmlns="http://www.w3.org/2000/svg" xmlns:xlink="http://www.w3.org/1999/xlink" x="0px" y="0px" viewBox="0 0 471.9 509.1"
	 style="enable-background:new 0 0 471.9 509.1;" xml:space="preserve">
<style type="text/css">
	.st0{fill:#E6E6E6;}
	.st1{fill:#B97550;}
	.st2{fill:#5280A1;}
	.st3{fill:#92B9A4;}
	.st4{fill:#12264A;}
	.st5{fill:#FFFFFF;}
</style>
<g>
	<path class="st0" d="M459.3,504.7h-419c-4.1,0-7.5-3.4-7.5-7.5v-457c0-4.1,3.4-7.5,7.5-7.5h419c4.1,0,7.5,3.4,7.5,7.5v457
		C466.8,501.3,463.5,504.7,459.3,504.7z M40.3,35.7c-2.5,0-4.5,2-4.5,4.5v457c0,2.5,2,4.5,4.5,4.5h419c2.5,0,4.5-2,4.5-4.5v-457
		c0-2.5-2-4.5-4.5-4.5L40.3,35.7L40.3,35.7z"/>
	<circle class="st0" cx="126.8" cy="193.2" r="9.8"/>
	<circle class="st0" cx="167.8" cy="193.2" r="9.8"/>
	<circle class="st1" cx="208.8" cy="193.2" r="9.8"/>
	<circle class="st1" cx="249.8" cy="193.2" r="9.8"/>
	<circle class="st1" cx="290.8" cy="193.2" r="9.8"/>
	<circle class="st0" cx="331.9" cy="193.2" r="9.8"/>
	<circle class="st0" cx="372.9" cy="193.2" r="9.8"/>
	<circle class="st0" cx="126.8" cy="224.4" r="9.8"/>
	<circle class="st0" cx="167.8" cy="224.4" r="9.8"/>
	<circle class="st0" cx="208.8" cy="224.4" r="9.8"/>
	<circle class="st0" cx="249.8" cy="224.4" r="9.8"/>
	<circle class="st0" cx="290.8" cy="224.4" r="9.8"/>
	<circle class="st0" cx="331.9" cy="224.4" r="9.8"/>
	<circle class="st0" cx="372.9" cy="224.4" r="9.8"/>
	<circle class="st2" cx="126.8" cy="255.5" r="9.8"/>
	<circle class="st2" cx="167.8" cy="255.5" r="9.8"/>
	<circle class="st2" cx="208.8" cy="255.5" r="9.8"/>
	<circle class="st0" cx="249.8" cy="255.5" r="9.8"/>
	<circle class="st0" cx="290.8" cy="255.5" r="9.8"/>
	<circle class="st0" cx="331.9" cy="255.5" r="9.8"/>
	<circle class="st0" cx="372.9" cy="255.5" r="9.8"/>
	
		<ellipse transform="matrix(0.9951 -9.853758e-02 9.853758e-02 0.9951 -27.6331 13.8924)" class="st0" cx="126.8" cy="286.7" rx="9.8" ry="9.8"/>
	<circle class="st0" cx="167.8" cy="286.7" r="9.8"/>
	
		<ellipse transform="matrix(0.9951 -9.853758e-02 9.853758e-02 0.9951 -30.7074 14.0442)" class="st0" cx="126.8" cy="317.9" rx="9.8" ry="9.8"/>
	<circle class="st0" cx="167.8" cy="317.9" r="9.8"/>
	<circle class="st0" cx="208.8" cy="317.9" r="9.8"/>
	<circle class="st0" cx="208.8" cy="286.7" r="9.8"/>
	<circle class="st3" cx="249.8" cy="286.7" r="9.8"/>
	<circle class="st3" cx="290.8" cy="286.7" r="9.8"/>
	<circle class="st3" cx="331.9" cy="286.7" r="9.8"/>
	<circle class="st0" cx="372.9" cy="286.7" r="9.8"/>
	<path id="a332a05d-d774-4fd2-8531-ab97682a63e9" class="st4" d="M175.3,106.2c-3.3,0.1-5.9,2.8-5.8,6c0.1,3.2,2.6,5.8,5.8,5.8
		h149.1c3.3,0.1,6-2.6,6.1-5.8s-2.6-6-5.8-6.1l0,0c-0.1,0-0.1,0-0.2,0L175.3,106.2L175.3,106.2z"/>
	<path class="st0" d="M358.2,104.5c-0.5,0.5-0.5,1.2,0,1.7l0,0l5,5h-12.4c-0.6,0-1.2,0.5-1.2,1.2c0,0.6,0.5,1.2,1.2,1.2h12.4l-5,5
		c-0.5,0.5-0.5,1.2,0,1.7s1.2,0.5,1.7,0l0,0l7-7c0.5-0.5,0.5-1.2,0-1.7l-7-7C359.4,104.1,358.7,104.1,358.2,104.5L358.2,104.5z"/>
	<path class="st0" d="M141.4,104.5c0.5,0.5,0.5,1.2,0,1.7l0,0l-5,5h12.4c0.6,0,1.2,0.5,1.2,1.2c0,0.6-0.5,1.2-1.2,1.2l0,0h-12.4l5,5
		c0.5,0.5,0.5,1.2,0,1.7s-1.2,0.5-1.7,0l0,0l-7-7c-0.5-0.5-0.5-1.2,0-1.7l7-7C140.2,104.1,141,104.1,141.4,104.5L141.4,104.5z"/>
	<path class="st3" d="M39.7,73.4c-19,0-34.3-15.3-34.3-34.2c0-19,15.3-34.3,34.3-34.3S74,20.2,74,39.2
		C73.9,58.1,58.6,73.4,39.7,73.4z"/>
	<path class="st5" d="M53.2,35.8H43.1V25.6c0-1.9-1.5-3.4-3.4-3.4s-3.4,1.5-3.4,3.4v10.1H26.1c-1.9,0-3.4,1.5-3.4,3.4
		c0,1.9,1.5,3.4,3.4,3.4h10.1v10.1c0,1.9,1.5,3.4,3.4,3.4s3.4-1.5,3.4-3.4v-10h10.1c1.9,0,3.4-1.5,3.4-3.4
		C56.6,37.3,55.1,35.8,53.2,35.8z"/>
	<circle class="st0" cx="372.9" cy="445.7" r="9.8"/>
	<circle class="st0" cx="331.9" cy="445.7" r="9.8"/>
	<circle class="st1" cx="290.8" cy="445.7" r="9.8"/>
	<circle class="st1" cx="249.8" cy="445.7" r="9.8"/>
	<circle class="st1" cx="208.8" cy="445.7" r="9.8"/>
	<circle class="st0" cx="167.8" cy="445.7" r="9.8"/>
	
		<ellipse transform="matrix(0.9951 -9.853758e-02 9.853758e-02 0.9951 -43.3005 14.6662)" class="st0" cx="126.8" cy="445.7" rx="9.8" ry="9.8"/>
	<circle class="st0" cx="372.9" cy="414.5" r="9.8"/>
	<circle class="st0" cx="331.9" cy="414.5" r="9.8"/>
	<circle class="st0" cx="290.8" cy="414.5" r="9.8"/>
	<circle class="st0" cx="249.8" cy="414.5" r="9.8"/>
	<circle class="st0" cx="208.8" cy="414.5" r="9.8"/>
	<circle class="st0" cx="167.8" cy="414.5" r="9.8"/>
	
		<ellipse transform="matrix(0.9951 -9.853758e-02 9.853758e-02 0.9951 -40.2262 14.5143)" class="st0" cx="126.8" cy="414.5" rx="9.8" ry="9.8"/>
	<circle class="st2" cx="372.9" cy="383.4" r="9.8"/>
	<circle class="st2" cx="331.9" cy="383.4" r="9.8"/>
	<circle class="st2" cx="290.8" cy="383.4" r="9.8"/>
	<circle class="st0" cx="249.8" cy="383.4" r="9.8"/>
	<circle class="st0" cx="208.8" cy="383.4" r="9.8"/>
	<circle class="st0" cx="167.8" cy="383.4" r="9.8"/>
	
		<ellipse transform="matrix(0.9951 -9.853758e-02 9.853758e-02 0.9951 -37.1617 14.363)" class="st0" cx="126.8" cy="383.4" rx="9.8" ry="9.8"/>
	<circle class="st0" cx="372.9" cy="352.2" r="9.8"/>
	<circle class="st0" cx="331.9" cy="352.2" r="9.8"/>
	<circle class="st0" cx="372.9" cy="321" r="9.8"/>
	<circle class="st0" cx="331.9" cy="321" r="9.8"/>
	<circle class="st0" cx="290.8" cy="321" r="9.8"/>
	<circle class="st0" cx="290.8" cy="352.2" r="9.8"/>
	<circle class="st3" cx="249.8" cy="352.2" r="9.8"/>
	<circle class="st3" cx="208.8" cy="352.2" r="9.8"/>
	<circle class="st3" cx="167.8" cy="352.2" r="9.8"/>
	
		<ellipse transform="matrix(0.9951 -9.853758e-02 9.853758e-02 0.9951 -34.0873 14.2111)" class="st0" cx="126.8" cy="352.2" rx="9.8" ry="9.8"/>
	<circle class="st0" cx="249.8" cy="321" r="9.8"/>
</g>
</svg>
