<?xml version="1.0" encoding="utf-8"?>
<!-- Generator: Adobe Illustrator 24.3.0, SVG Export Plug-In . SVG Version: 6.00 Build 0)  -->
<svg version="1.1" id="aadec279-818b-408a-a9a2-133d1084e5d4"
	 xmlns="http://www.w3.org/2000/svg" xmlns:xlink="http://www.w3.org/1999/xlink" x="0px" y="0px" viewBox="0 0 619.9 733.6"
	 style="enable-background:new 0 0 619.9 733.6;" xml:space="preserve">
<style type="text/css">
	.st0{fill:#A0616A;}
	.st1{fill:#5280A1;}
	.st2{fill:#92B9A4;}
	.st3{fill:#12264A;}
	.st4{fill:#FFFFFF;}
</style>
<path class="st0" d="M460.3,521.2c0,0,97,5,74.4,35.6c-22.6,30.5-82-17.9-82-17.9L460.3,521.2z"/>
<path class="st1" d="M281.5,230.3l19.8,4.9c0,0,11.5,34.6,19.8,65.8s24.7,125.1,24.7,125.1l127.6,89.4l-15.2,34l-170-67l-37.9-148.7
	L281.5,230.3z"/>
<polygon class="st2" points="300.1,291.6 292.7,445.8 308.1,491.6 263.1,458.6 "/>
<path class="st3" d="M326.7,565.2c0,0,21.4,57.6,24.7,97.1s6.6,70.8,6.6,70.8H257.6l-19.8-29.6v29.6H121c0,0-32.9-107-19.8-120.2
	s138.3-69.1,138.3-69.1L326.7,565.2z"/>
<circle class="st0" cx="200.8" cy="105.2" r="62.5"/>
<path class="st0" d="M153.1,131.5l-4.9,72.4l62.5,83.9l31.3-79c0,0-28-18.1-11.5-56L153.1,131.5z"/>
<path class="st1" d="M335.8,579.2c0,14.8-41.2,37.9-41.2,37.9v8.2l-16.5,8.2L242,561.1l-9.9,79c0,0-72.4,11.5-95.5,0
	c-23-11.5-34.6-6.6-67.5-18.1s13.2-166.2,13.2-166.2L49.4,217.1l71.9-36l3.8-1.9l9.9-1.8l15.2-2.8l50.7,34.2l4.1,21.4l2.5,13.2
	l13.2-14.8l9.9-32.7l70.7,39.3l-19.8,158C281.5,393.2,335.8,564.4,335.8,579.2z"/>
<path class="st0" d="M93.8,630.2c0,0,75.7,60.9,39.5,72.4s-56-62.5-56-62.5L93.8,630.2z"/>
<path class="st1" d="M65.8,220.4l-16.5-3.3c0,0-24.7,13.2-26.3,39.5S0,467.3,0,467.3l69.1,186l56-21.4L70.8,457.4L111.9,306
	L65.8,220.4z"/>
<circle class="st3" cx="208.1" cy="264.6" r="6"/>
<circle class="st3" cx="208.1" cy="303.6" r="6"/>
<circle class="st3" cx="242.1" cy="560.6" r="6"/>
<path class="st3" d="M148,41.1l-11.6-4.6c0,0,24.2-26.6,57.8-24.3l-9.5-10.4c0,0,23.1-9.3,44.1,15c11.1,12.8,23.8,27.8,31.8,44.7
	h12.4L268,72.9l18.1,11.4l-18.6-2c1.1,6.2,1.3,12.6,0.5,18.9c-0.8,6.3-4,12-8.9,16l0,0c0,0-14.3-29.7-14.3-34.3v11.6
	c0,0-11.6-10.4-11.6-17.4l-6.3,8.1h-42l6.3-10.4l-24.2,3.5l9.5-12.7L139,117.9C139,117.9,117.5,58.4,148,41.1z"/>
<circle class="st2" cx="519.9" cy="383.5" r="100"/>
<path class="st4" d="M515.8,434.3v-12.5c-6.3-0.1-12.9-2.4-16.7-5.5l2.6-8.3c4.5,3.4,10,5.3,15.7,5.3c7.7,0,13-5.1,13-12.1
	c0-6.8-4.3-11-12.3-14.7c-11.1-5-18-10.7-18-21.4c0-10.3,6.4-18.1,16.5-20v-12.5h6.8v12c5,0.1,10,1.6,14.2,4.3l-2.7,8.2
	c-4-2.8-8.8-4.2-13.7-4.2c-8.4,0-11.6,5.7-11.6,10.7c0,6.4,4,9.7,13.5,14.1c11.2,5.2,16.9,11.6,16.9,22.7c0,9.8-6,19-17.2,21.1v12.9
	H515.8z"/>
<polygon class="st2" points="85.6,504.9 125.6,629.8 93.6,499.8 "/>
<path class="st3" d="M442.2,209.6h-25.4c-2.3,0-4.2-1.9-4.2-4.2V169c0-2.3,1.9-4.2,4.2-4.2h25.4c2.3,0,4.2,1.9,4.2,4.2v36.5
	C446.4,207.8,444.5,209.6,442.2,209.6z M416.8,166.8c-1.2,0-2.2,1-2.2,2.2v36.5c0,1.2,1,2.2,2.2,2.2h25.4c1.2,0,2.2-1,2.2-2.2V169
	c0-1.2-1-2.2-2.2-2.2H416.8z"/>
<path class="st3" d="M488.6,209.6h-22.9c-3,0-5.4-2.4-5.4-5.4v-73.7c0-3,2.4-5.4,5.4-5.4h22.9c3,0,5.4,2.4,5.4,5.4v73.7
	C494,207.2,491.6,209.6,488.6,209.6z M465.7,127.1c-1.9,0-3.4,1.5-3.4,3.4v73.7c0,1.9,1.5,3.4,3.4,3.4h22.9c1.9,0,3.4-1.5,3.4-3.4
	v-73.7c0-1.9-1.5-3.4-3.4-3.4L465.7,127.1z"/>
<path class="st3" d="M535.3,209.6h-21.2c-3.5,0-6.3-2.8-6.3-6.3V94.9c0-3.5,2.8-6.3,6.3-6.3h21.2c3.5,0,6.3,2.8,6.3,6.3v108.4
	C541.6,206.8,538.8,209.6,535.3,209.6z M514.2,90.6c-2.4,0-4.3,1.9-4.3,4.3v108.4c0,2.4,1.9,4.3,4.3,4.3h21.2c2.4,0,4.3-1.9,4.3-4.3
	V94.9c0-2.4-1.9-4.3-4.3-4.3H514.2z"/>
<rect x="420" y="171.8" class="st2" width="19" height="30.9"/>
<rect x="467.6" y="132.5" class="st2" width="19" height="70.2"/>
<rect x="515.2" y="96" class="st2" width="19" height="106.7"/>
<path class="st3" d="M555.1,223.6h-158c-0.6,0-1-0.4-1-1c0,0,0,0,0,0v-157c0-0.6,0.4-1,1-1s1,0.4,1,1v156h157c0.6,0,1,0.4,1,1
	S555.7,223.6,555.1,223.6z"/>
</svg>
