<?xml version="1.0" encoding="utf-8"?>
<!-- Generator: Adobe Illustrator 24.3.0, SVG Export Plug-In . SVG Version: 6.00 Build 0)  -->
<svg version="1.1" id="b944483d-564a-4430-a20f-83b53d0ebb22"
	 xmlns="http://www.w3.org/2000/svg" xmlns:xlink="http://www.w3.org/1999/xlink" x="0px" y="0px" viewBox="0 0 551.9 390.1"
	 style="enable-background:new 0 0 551.9 390.1;" xml:space="preserve">
<style type="text/css">
	.st0{fill:#FFB8B8;}
	.st1{fill:#92B9A4;}
	.st2{fill:#12264A;}
	.st3{fill:#5280A1;}
	.st4{fill:#B97550;}
	.st5{fill:#FFFFFF;}
</style>
<g>
	<path class="st0" d="M173.1,79.7c-0.1,0.5-0.2,1.1-0.2,1.6l-43,24.8l-10.4-6l-11.1,14.6l22.3,15.9l49-38.7c5.4,2,11.5-0.8,13.5-6.2
		c2-5.4-0.8-11.5-6.2-13.5c-5.4-2-11.5,0.8-13.5,6.2C173.3,78.9,173.2,79.3,173.1,79.7L173.1,79.7z"/>
	<path class="st1" d="M75.2,94.9l33.8,24.1l15.1-19L91.3,73.7c-5.7-4.6-14.1-3.7-18.7,2.1c-0.2,0.2-0.3,0.4-0.5,0.6l0,0
		C67.9,82.3,69.3,90.7,75.2,94.9L75.2,94.9z"/>
	<polygon class="st0" points="5.4,370 17.3,373.1 34.9,328.9 17.4,324.3 	"/>
	<path class="st2" d="M37.3,390.1L0,380.4l0,0L3.8,366l0,0l22.9,6C34.6,374,39.4,382.2,37.3,390.1L37.3,390.1L37.3,390.1z"/>
	<polygon class="st0" points="110.8,378.5 122.9,376.3 120.3,328.7 102.5,331.9 	"/>
	<path class="st2" d="M148.2,383.3l-37.9,6.8l0,0l-2.6-14.7l0,0l23.3-4.2C139,369.9,146.8,375.3,148.2,383.3L148.2,383.3
		L148.2,383.3z"/>
	<path class="st2" d="M87.1,28.6c3,0.7,5.4,3.8,6.8,7.3c1.3,3.7,2.2,7.5,2.7,11.4c1.1,7.3,2.2,15.1-0.1,21.8
		C93.7,77,86.4,81.1,80,79.1s-11.5-9.2-13.2-17.6c-1.6-8.5-0.6-17.2,2.9-25.1c1.8-4.1,4.3-8,7.7-9.8c3.4-2,7.8-1.1,10.1,2.1"/>
	<path class="st3" d="M103.9,159.9l23,205.8l-19,7.2l-35-138L24.2,361.1l-20.8,1.2c0,0,28.5-196.3,49.6-200.8L103.9,159.9z"/>
	
		<ellipse transform="matrix(0.1602 -0.9871 0.9871 0.1602 41.1878 108.9343)" class="st0" cx="84.6" cy="30.3" rx="24.6" ry="24.6"/>
	<path class="st1" d="M95.2,65.1l-26.5-3.5c0,0-17.3,20.8-16.2,56.5s-2.9,46.7-2.9,46.7l55.3,1C96.9,154.9,130.4,91.8,95.2,65.1z"/>
	<path class="st0" d="M109.4,170.9c-0.6,0-1.1,0.1-1.7,0.1l-34-36.1l3.5-11.5l-16.7-7.5l-10.4,25.4L99,180.1
		c-0.7,5.8,3.4,11,9.1,11.7s11-3.4,11.7-9.1c0.7-5.8-3.4-11-9.1-11.7C110.3,171,109.8,170.9,109.4,170.9L109.4,170.9z"/>
	<path class="st1" d="M72.2,79.2l-15.7,38.4L78.4,128l18.2-38c3.2-6.6,0.4-14.6-6.3-17.8c-0.2-0.1-0.5-0.2-0.7-0.3l0,0
		C82.8,69.1,75,72.4,72.2,79.2C72.2,79.2,72.2,79.2,72.2,79.2z"/>
	<path class="st2" d="M78.2,52.6c3.8-2.2,4.3-7.6,3.7-12s-1.4-9.3,1.2-12.9c3.1-4.3,9.3-4.4,14.6-4.5s11.8-1.7,13.1-6.8
		c0.9-3.4-1-7-3.8-9.1s-6.3-3.1-9.7-4c-7.6-2-15.4-4-23.2-2.9c-16,2.3-27.2,17-25.2,33c1.3,9.9,3.1,14.2,1.9,18.5
		c-2.2,8.1-11.8,13.3-12,21.7c-0.1,6.6,5.6,11.6,11.3,15c4.5,2.6,9.3,4.9,14.5,5.5s10.7-0.6,14.6-4.1c5-4.5,6.2-12.1,4.8-18.6
		s-5.1-12.4-8.7-18"/>
	<path class="st2" d="M542.9,59.9h-355c-5,0-9,4-9,9v228c0,5,4,9,9,9h355c5,0,9-4,9-9v-228C551.9,64,547.9,60,542.9,59.9z
		 M549.9,296.9c0,3.9-3.1,7-7,7h-355c-3.9,0-7-3.1-7-7v-228c0-3.9,3.1-7,7-7h355c3.9,0,7,3.1,7,7V296.9z"/>
	<path class="st4" d="M263.7,173.4h-56c-4.7,0-8.5-3.8-8.5-8.5v-56c0-4.7,3.8-8.5,8.5-8.5h56c4.7,0,8.5,3.8,8.5,8.5v56
		C272.2,169.6,268.4,173.4,263.7,173.4z"/>
	<path class="st5" d="M524.4,233h-318c-3.6,0-6.5-2.9-6.5-6.5s2.9-6.5,6.5-6.5h318c3.6,0,6.5,2.9,6.5,6.5S528,233,524.4,233z"/>
	<path class="st5" d="M524.6,201.5h-318c-3.6,0-6.5-2.9-6.5-6.5s2.9-6.5,6.5-6.5h318c3.6,0,6.5,2.9,6.5,6.5S528.2,201.5,524.6,201.5
		z"/>
	<path class="st5" d="M367.6,158.4h-47c-3.6,0-6.5-2.9-6.5-6.5s2.9-6.5,6.5-6.5h47c3.6,0,6.5,2.9,6.5,6.5S371.2,158.4,367.6,158.4z"
		/>
	<path class="st5" d="M524.6,126.5h-204c-3.6,0-6.5-2.9-6.5-6.5s2.9-6.5,6.5-6.5h204c3.6,0,6.5,2.9,6.5,6.5S528.2,126.5,524.6,126.5
		z"/>
	<path class="st5" d="M359.6,265H206.4c-3.6,0-6.5-2.9-6.5-6.5c0-3.6,2.9-6.5,6.5-6.5h153.2c3.6,0,6.5,2.9,6.5,6.5
		C366.1,262,363.2,265,359.6,265z"/>
</g>
</svg>
