<?xml version="1.0" encoding="utf-8"?>
<!-- Generator: Adobe Illustrator 24.3.0, SVG Export Plug-In . SVG Version: 6.00 Build 0)  -->
<svg version="1.1" id="abc204e0-0cf0-4263-912e-9567c41f6205"
	 xmlns="http://www.w3.org/2000/svg" xmlns:xlink="http://www.w3.org/1999/xlink" x="0px" y="0px" viewBox="0 0 468.8 360.1"
	 style="enable-background:new 0 0 468.8 360.1;" xml:space="preserve">
<style type="text/css">
	.st0{fill:#FFFFFF;}
	.st1{fill:#5280A1;}
	.st2{fill:#B97550;}
	.st3{fill:#92B9A4;}
	.st4{fill:#12264A;}
</style>
<g>
	<path class="st0" d="M280.4,82.6C240,14.1,151.6-8.7,83.1,31.8C69.9,39.6,58,49.5,47.9,61.1L38.6,53c56.8-65.1,155.5-71.8,220.6-15
		c12.6,11,23.3,23.9,31.8,38.3L280.4,82.6z"/>
	<path class="st1" d="M286.2,243l-10.2-6.9c30.9-46.1,32.6-105.8,4.4-153.5l10.6-6.3C321.6,128.1,319.8,193,286.2,243z"/>
	<path class="st2" d="M39.9,260.1C-12.8,201.3-13.3,112.4,38.6,53l9.3,8.1C0,115.9,0.5,197.7,49,251.9L39.9,260.1z"/>
	<path class="st3" d="M156.4,312.2c-44.5,0-86.8-19-116.5-52.1l9.2-8.2c53.1,59.3,144.1,64.3,203.4,11.3c8.9-8,16.9-17.1,23.5-27.1
		l10.2,6.9C257.2,286.2,208.5,312.2,156.4,312.2z"/>
	<polygon class="st4" points="431.8,319 263.5,319 263.5,245.2 266.1,245.2 266.1,316.5 431.8,316.5 	"/>
	<circle class="st4" cx="264.8" cy="257.2" r="14.2"/>
	<rect x="391.1" y="342" class="st4" width="77.7" height="2.6"/>
	<rect x="391.1" y="349.7" class="st4" width="77.7" height="2.6"/>
	<rect x="391.1" y="357.5" class="st4" width="77.7" height="2.6"/>
</g>
</svg>
