<?xml version="1.0" encoding="utf-8"?>
<!-- Generator: Adobe Illustrator 24.3.0, SVG Export Plug-In . SVG Version: 6.00 Build 0)  -->
<svg version="1.1" id="fbf61bc7-949a-4ad5-bdf9-42522344582c"
	 xmlns="http://www.w3.org/2000/svg" xmlns:xlink="http://www.w3.org/1999/xlink" x="0px" y="0px" viewBox="0 0 433.9 306.5"
	 style="enable-background:new 0 0 433.9 306.5;" xml:space="preserve">
<style type="text/css">
	.st0{fill:#C18F99;}
	.st1{fill:none;stroke:#3F3D56;stroke-width:2;stroke-miterlimit:10;}
	.st2{fill:#12264A;}
	.st3{fill:#9F616A;}
	.st4{fill:#B97550;}
	.st5{fill:#92B9A4;}
	.st6{fill:#6C63FF;}
	.st7{fill:#E5D1D1;}
	.st8{fill:#5280A1;}
	.st9{opacity:0.1;enable-background:new    ;}
</style>
<path class="st0" d="M270.7,160.4c15.2-6.9,55.9-28.2,73-73.2c5.5-14.4,19.7-52-0.8-72.1c-20.1-19.7-52.4-19.3-72.1,0.8
	c-27.4-15.6-57.2-14.4-72.1,0.8c-19.9,20.2-5.2,57,0.8,72.1C216.6,131.8,254.6,152.8,270.7,160.4z"/>
<path class="st1" d="M355.7,186.9"/>
<circle class="st2" cx="134.8" cy="123.6" r="33.3"/>
<path class="st3" d="M118.9,140.4c0,0-10.8,24-13.9,24.8s25.5,14.7,25.5,14.7s5.4-29.4,7.7-30.9S118.9,140.4,118.9,140.4z"/>
<circle class="st3" cx="135.2" cy="135.8" r="22.4"/>
<path class="st4" d="M154,306.5H58.6c3.2-11.6,6.6-23.1,8.5-29.5c1-3.2,1.6-5.1,1.6-5.1s71.9,15.5,73.5,16.2c0.9,0.9,1.6,1.9,2.3,3
	C146.7,294.5,150.3,300.2,154,306.5z"/>
<path class="st3" d="M35.4,87.8L12.2,52.2c0,0,5.7-37.3-2-30.4S0,56.9,0,56.9l26.9,40.9L35.4,87.8z"/>
<path class="st3" d="M245.8,152.8l20.9-1.5c0,0,24.8-26.3,26.3-17.8s-20.1,27.1-20.1,27.1l-28.6,3.1L245.8,152.8z"/>
<path class="st5" d="M93.4,160.5v-7.7c0,0-20.1-13.2-19.3-15.5s-1.5-3.9-1.5-3.9s-2.3-3.1-2.3-3.9s-3.1-1.5-3.1-1.5l-19.3-22.4
	c0,0-10.8-21.7-13.2-20.9s-14.7,5.4-13.2,8.5s44.9,69.6,44.9,69.6s2.3,14.7,6.2,14.7S93.4,160.5,93.4,160.5z"/>
<path class="st5" d="M145.2,169.8c0,0,17-0.8,17.8,0s11.6,0,11.6,0s29.4-7,31.7-9.3s41-12.4,42.5-7.7s5.4,13.9,1.5,15.5
	s-108.3,27.9-108.3,27.9L145.2,169.8z"/>
<circle class="st2" cx="123.2" cy="88.6" r="13.8"/>
<path class="st2" d="M104.8,81.2c0-7,5.3-13,12.3-13.7c-0.5,0-1-0.1-1.4-0.1c-7.6,0-13.8,6.2-13.8,13.8c0,7.6,6.2,13.8,13.8,13.8
	c0,0,0,0,0,0c0.5,0,1,0,1.4-0.1C110.2,94.1,104.8,88.2,104.8,81.2z"/>
<ellipse class="st2" cx="138.7" cy="116.6" rx="22.9" ry="13.8"/>
<path class="st5" d="M112.4,152.4c0,0-7,5.4-8.5,6.2s-10.8-7-12.4-7s-21.7,23.2-21.7,23.2s3.7,4.3,0,26.3
	c-1.4,8.2-4.2,43.5-4.2,48.2s-15.2,16-1.2,26.1s80.5,20.9,81.2,14.7s-7.7-22.4-3.9-30.2s3.9-36.4,3.9-36.4l4.6-30.2l3.9-24
	c0,0-18.2-5-19.7-5S125.9,175.2,112.4,152.4z"/>
<rect x="360.1" y="114.3" transform="matrix(0.9992 -3.874900e-02 3.874900e-02 0.9992 -4.5457 14.3542)" class="st6" width="15.8" height="20.4"/>
<path class="st7" d="M304.1,185.2c0,0-21.9-10.5-21.6-1.4c0.4,9,22.1,15,22.1,15L304.1,185.2z"/>
<path class="st2" d="M406.1,305h-104c2.2-10.2,6.3-22.5,9.5-31.3c2.6-7,4.5-11.9,4.5-11.9c11.8-13.3,29-13.7,45-10.4
	c1.9,0.4,3.8,0.8,5.7,1.3c0.2,0,0.4,0.1,0.7,0.2c3.8,1,7.4,2.1,10.9,3.2c6,1.9,11.3,3.9,15.7,5.2c2.2,0.7,4.4,1.2,6.7,1.6
	c0.5,0.1,1,0.1,1.5,0.1c1.7-0.1,2.9,1.8,3.7,5C407.7,275.3,407.3,289.6,406.1,305z"/>
<path class="st7" d="M385.6,94.9c0,0,12.1,18.8,16.8,23.1s-8.5,13.9-8.5,13.9l-23.7,3.2c0,0,0.3-21.5-0.9-23.7
	S385.6,94.9,385.6,94.9z"/>
<path class="st8" d="M365,119.5c0,0,4.9,8.9,9.4,8.7s27.9-10.1,28.9-13.6s7.7,24.6,7.7,24.6l-57.2,100.7l-14-9.7l6.8-59.2l5.6-31.9
	L365,119.5z"/>
<path class="st4" d="M405.4,209.6c-2.4,4.6-3.6,9.7-3.5,14.9c0,0.2,0,0.5,0,0.7c0.5,10.5,4.4,22.6,5.8,31.4c1,6.3,0.7,10.9-3,12
	c-9,2.6,1.3,4.5-33.4,16s-40.7,1.6-40.8-0.7s4.9-19.4,3.7-20.5s-16.4,14.2-21,12.1s-0.5-13.6-0.5-13.6s10.4-24.2,10.2-29.8
	s15.7-32.3,15.7-32.3l10.9-70.6c0,0,4.2-9.2,9.8-10.6c3.5-0.7,7.2-0.1,10.3,1.9l-9.4,20.7l-9.9,36.6l1.7,13.5
	c0,0,11.5-24.2,19.1-33.6s23.7-31.5,23.7-31.5s3.8-12.7,0.9-16.5c-2.8-3.8,11.9-4.4,18.1,11.2c3.3,8.3,8.7,20.6,12.1,32.1
	c3,10.2,4.4,19.7,1.5,25.1C422.7,186.5,411.3,197.4,405.4,209.6z"/>
<path class="st9" d="M427.3,178.2c-4.6,8.3-16,19.2-21.9,31.4c-1.5-5.5-3.4-11.2-3.4-11.2s-7.1-38.2,14-48.1c3.5-0.3,7,0.6,9.8,2.7
	C428.9,163.2,430.3,172.8,427.3,178.2z"/>
<path class="st4" d="M343.4,175.8l-17.9,5.2l-24.9,1l-2.6,21.6l40.9,2.9C338.9,206.5,349.1,177.8,343.4,175.8z"/>
<path class="st7" d="M372.6,248.5c0,0-24,4-18.5,11.2c5.5,7.2,26.7-0.4,26.7-0.4L372.6,248.5z"/>
<path class="st9" d="M402,225.2c0.5,10.5,4.4,22.6,5.8,31.4c-7.6,7.2-14.9,13.6-17.6,13.7c-5.7,0.2-14.7-0.6-18.1,0.7
	s-5.3-20.2-5.3-20.2s2-6.9,10.9-10.6C383.6,237.6,395.2,230.7,402,225.2z"/>
<path class="st4" d="M415.8,143.5c0,0,19.1-3,18.1,28.7s2,52-5.7,58s-32.7,33-38.3,33.2s-14.7-0.6-18.1,0.7s-5.3-20.2-5.3-20.2
	s2-6.9,10.9-10.6s29.9-17,29.7-21.5s-5.3-20.2-5.3-20.2S394.6,153.4,415.8,143.5z"/>
<circle class="st7" cx="368.7" cy="97.8" r="24.9"/>
<path class="st2" d="M351.9,62.1c-0.6,0.5-1.3,0.9-2.1,1.1c-0.8,0.1-1.6-0.4-1.7-1.2c-0.4,1.2-1.3,2.3-2.4,3c-1.2,0.6-3,0.1-3.1-1.2
	c-0.2,1-0.6,1.9-1.3,2.7c-0.7,0.8-1.9,0.8-2.7,0.1c0.5,2.8,0.2,5.6,0.4,8.5s0.9,5.8,3,7.7c3.1,2.7,7.8,2,11.9,1.5
	c0.6-0.1,1.3-0.1,1.9,0.1c1.5,0.7,1.5,2.8,1.5,4.5c0.3,6,4.8,11,10.8,11.8c1.6,0.3,3.3-0.2,4.6-1.1c1.2-1,1.8-2.6,3.1-3.3
	c2.2-1.2,4.8,0.6,6.4,2.5s3.1,4.3,5.6,4.6c3.2,0.5,5.7-2.8,6.9-5.9c3.4-8.6,3.1-18.2-0.7-26.7C387.3,55.8,364.1,53.5,351.9,62.1z"/>
</svg>
