<?xml version="1.0" encoding="utf-8"?>
<!-- Generator: Adobe Illustrator 24.3.0, SVG Export Plug-In . SVG Version: 6.00 Build 0)  -->
<svg version="1.1" id="b3476446-c29b-489b-91f9-6dd64a8ef5f6"
	 xmlns="http://www.w3.org/2000/svg" xmlns:xlink="http://www.w3.org/1999/xlink" x="0px" y="0px" viewBox="0 0 647.3 781.3"
	 style="enable-background:new 0 0 647.3 781.3;" xml:space="preserve">
<style type="text/css">
	.st0{fill:#F2F2F2;}
	.st1{fill:#B97550;}
	.st2{fill:#E6E6E6;}
	.st3{fill:#12264A;}
	.st4{fill:#92B9A4;}
	.st5{fill:#FFFFFF;}
	.st6{fill:#5280A1;}
	.st7{fill:#FFB9B9;}
	.st8{opacity:0.1;enable-background:new    ;}
	.st9{fill:#9F616A;}
	.st10{fill:#2F2E41;}
</style>
<path class="st0" d="M591.8,392c-34.7,10-77.3,22.5-121.1,35.6c-63.4,18.9-129.2,38.9-177.2,53.4l0-0.2c1.8-10.2,5.9-19.9,12.2-28.2
	c35.5-46.2,80.7-78.4,131.1-90.4h0c14.2-3.4,28.7-5.1,43.2-5.2C520,356.9,558,369.5,591.8,392z"/>
<ellipse class="st1" cx="360.2" cy="710.5" rx="228" ry="17"/>
<path class="st2" d="M326.2,428.8c0,122.8-73,165.7-163.1,165.7S0,551.6,0,428.8s163.1-279.1,163.1-279.1S326.2,306,326.2,428.8z"/>
<polygon class="st3" points="157.2,575.7 158.8,472.9 228.4,345.7 159.1,456.8 159.9,410.6 207.8,318.6 160,398.3 160,398.3 
	161.4,315.2 212.7,242 161.6,302.1 162.5,149.7 157.2,351.5 157.6,343.2 105.4,263.3 156.8,359.2 151.9,452 151.7,449.5 91.6,365.5 
	151.6,458.2 151,469.9 150.8,470 150.9,471 138.6,706.6 155,706.6 157,584.9 216.8,492.4 "/>
<path class="st2" d="M520.9,29.1v648.2c0,16.1-13.1,29.1-29.1,29.1H228.6c-16.1,0-29.1-13-29.1-29c0,0,0-0.1,0-0.1V29.1
	c0-16.1,13-29.1,29.1-29.1c0,0,0,0,0,0H268v5.1c0,13.2,10.7,24,24,24h133.8c5.1,0,10.1-1.6,14.2-4.7c0.8-0.6,1.6-1.3,2.4-2
	c4.7-4.5,7.4-10.8,7.4-17.3V0h42C507.9,0,520.9,13,520.9,29.1C520.9,29.1,520.9,29.1,520.9,29.1z"/>
<path class="st4" d="M348.2,253.8c0,18.1-10.7,24.4-24,24.4c-0.3,0-0.6,0-0.9,0c-0.6,0-1.2,0-1.8-0.1c-12-0.8-21.3-7.5-21.3-24.3
	c0-17.4,22.2-39.4,23.9-41l0,0c0.1-0.1,0.1-0.1,0.1-0.1S348.2,235.7,348.2,253.8z"/>
<path class="st3" d="M323.3,275.5l8.8-12.3l-8.8,13.6l0,1.4c-0.6,0-1.2,0-1.8-0.1l0.9-18.1l0-0.1l0,0l0.1-1.7l-8.8-13.7l8.9,12.4
	l0,0.4l0.7-13.7l-7.6-14.1l7.7,11.7l0.7-28.3l0-0.1v0.1l-0.1,22.4l7.5-8.9l-7.5,10.8l-0.2,12.2l7-11.8l-7,13.6l-0.1,6.8l10.2-16.4
	l-10.2,18.7L323.3,275.5z"/>
<polygon class="st4" points="474.2,484.7 246.2,484.7 246.2,507 246.2,540.9 246.2,560 265.3,540.9 474.2,540.9 "/>
<rect x="297.1" y="498.3" class="st5" width="128.3" height="10.4"/>
<rect x="297.1" y="513.9" class="st5" width="128.3" height="10.4"/>
<polygon class="st1" points="246.2,382.2 474.2,382.2 474.2,404.5 474.2,438.4 474.2,457.5 455.1,438.4 246.2,438.4 "/>
<rect x="285.1" y="396.8" class="st5" width="128.3" height="10.4"/>
<rect x="285.1" y="412.4" class="st5" width="128.3" height="10.4"/>
<path class="st3" d="M237.2,146.4V330h246V146.4H237.2z M268.9,148.8c2.2,0,4,1.8,4,4s-1.8,4-4,4c-2.2,0-4-1.8-4-4l0,0
	C264.9,150.5,266.7,148.8,268.9,148.8L268.9,148.8L268.9,148.8z M245.1,156.7c-2.2,0-4-1.8-4-4s1.8-4,4-4c2.2,0,4,1.8,4,4
	C249.1,154.9,247.3,156.7,245.1,156.7L245.1,156.7z M253,152.7c0-2.2,1.8-4,4-4c2.2,0,4,1.8,4,4s-1.8,4-4,4c0,0,0,0,0,0
	C254.8,156.7,253,154.9,253,152.7C253,152.7,253,152.7,253,152.7L253,152.7z M389.4,278.5H257v-98.4h132.4V278.5z"/>
<rect x="470" y="149.7" class="st5" width="7.9" height="1"/>
<rect x="470" y="152.7" class="st5" width="7.9" height="1"/>
<rect x="470" y="155.7" class="st5" width="7.9" height="1"/>
<rect x="410.2" y="178.5" class="st5" width="59.8" height="3"/>
<rect x="410.2" y="188.7" class="st5" width="59.8" height="3"/>
<rect x="410.2" y="198.9" class="st5" width="59.8" height="3"/>
<rect x="410.2" y="209.2" class="st5" width="59.8" height="3"/>
<rect x="410.2" y="219.4" class="st5" width="59.8" height="3"/>
<rect x="410.2" y="229.7" class="st5" width="59.8" height="3"/>
<rect x="410.2" y="239.9" class="st5" width="59.8" height="3"/>
<rect x="410.2" y="250.1" class="st5" width="59.8" height="3"/>
<rect x="410.2" y="260.4" class="st5" width="59.8" height="3"/>
<rect x="410.2" y="270.6" class="st5" width="59.8" height="3"/>
<circle class="st5" cx="264.9" cy="285.5" r="4"/>
<circle class="st5" cx="278.5" cy="285.5" r="4"/>
<circle class="st5" cx="292" cy="285.5" r="4"/>
<rect x="410.2" y="304.9" class="st4" width="59.8" height="16.8"/>
<path class="st6" d="M144.9,535.5l-2.2,76.7L119.3,702c0,0,5.1,15.3,1.5,19s-20.4,10.2-20.4,10.2l13.9-191.3L144.9,535.5z"/>
<path class="st3" d="M94.2,720.6c0,0-8.3,18.3,3.3,20s65.6,6.1,62.2-3.3S115.8,719,115.8,719L94.2,720.6z"/>
<path class="st6" d="M63.1,467.6c0,0,8.8,47.5,14.6,55.5s-2.9,66.5-2.9,66.5s-13.1,84-7.3,97.1s4.4,8.8,3.7,16.1s-2.2,13.1,0,19.7
	s2.2,5.8,2.9,9.5s0,23.4,0,23.4s31.4,11,36.5-5.1c0,0-7.3-10.2-5.1-18.3c2.3-8.1,3.5-16.4,3.7-24.8v-15.3l33.6-125.6l8-45.3
	c0,0-2.2-46-10.2-50.4S63.1,467.6,63.1,467.6z"/>
<path class="st3" d="M76.3,751.7c0,0-11,24.1,4.4,26.3s86.2,8,81.8-4.4s-57.7-24.1-57.7-24.1L76.3,751.7z"/>
<circle class="st7" cx="90.1" cy="228.1" r="29.2"/>
<path class="st7" d="M69.6,241l0.5,37.3l35.8,0.1c0,0-9.1-29.2-5-35.3S69.6,241,69.6,241z"/>
<path class="st3" d="M123,298.9c0,0-25.6-32.9-45.3-19s-27,46.7-27,46.7l4.4,92c0,0,11,13.1,4.4,21.9c-6.6,8.8-10.2,6.6-5.1,13.1
	s11,11.7,8.8,13.9s2.2,3.7,2.2,3.7l77.4,2.2c0,0-2.2-2.9,4.4-11.7s-1.5-20.4,0-24.8c1.5-4.4,2.9,0.7,3.7-9.5
	C151.5,417.2,123,298.9,123,298.9z"/>
<path class="st7" d="M115.7,487.3c0,0,1.5,18.3,12.4,21.2c4.1,1.1,7.2-1,9.4-4c4.3-6,4.5-13.9,0.6-20.1l-2.7-4.3L115.7,487.3z"/>
<path class="st3" d="M48.1,262c0,0-0.7,14.6,0,16.8s1.5,4.4,0,6.6s-0.7,9.5,0.7,10.2c1.5,0.7-2.9,7.3-1.5,11.7s2.9,5.8,3.7,7.3
	s1.9,4.1,1.9,4.1s21.5-45.7,39-34.7c17.5,11,31.4,14.6,31.4,14.6S113.9,247.4,48.1,262z"/>
<path class="st3" d="M79.9,296c0,0-23.4,2.2-21.9,32.9c1.5,30.7-2.2,78.9-2.2,78.9s40.2,61.3,46.7,65.7s7.3,3.7,6.6,7.3
	s-1.5,6.6,1.5,9.5c1.7,1.7,3.7,3.2,5.8,4.4c0,0,23.4-8,21.2-15.3s-12.4-19-12.4-19s-17.5-28.5-18.3-32.9c-0.7-4.4-0.7-3.7-2.9-5.8
	c-2.2-2.2-8-11-8-15.3v-13.9l6.1-74.2c0.6-6.1-1.5-12.2-5.7-16.6C92.9,297.9,87.7,295.1,79.9,296z"/>
<path class="st1" d="M109,205.6c3.9,1.1,8,0.1,11-2.5c2.9-2.7,3.8-7.4,1.8-10.8c-1.8-2.9-5.2-4.3-8.4-5.4
	c-7.2-2.2-14.6-3.4-22.1-3.4c-3.6,0-7.3,0.3-10.4,2.2c-1.5,0.9-2.8,2.2-4.3,3.1c-2.8,1.7-6.1,2.3-9.1,3.5
	c-6.3,2.5-11.1,7.7-13.3,14.1c-0.7,2.1-1.1,4.4-1.3,6.6c-0.5,6.1,0.6,12.3,3.2,17.9c4.1,8.9,11.8,16.4,12.9,26.1
	c4.2-3.5,5.4-9.4,8.6-13.8c2.4-3.2,5.8-5.6,9.7-6.6c1.1-0.1,2.1-0.6,3-1.3c0.6-0.8,0.9-1.7,0.9-2.7l2-14.4c0.4-2.9,1-6.1,3.2-8.1
	c1.4-1.1,3.1-1.8,4.8-2.1c4.1-1,8.3-1.7,12.5-2"/>
<path class="st8" d="M59.4,418.2l41,53.2C100.4,471.4,62.6,439.8,59.4,418.2z"/>
<polygon class="st8" points="98.7,359.2 98.3,409.5 122.1,445.2 102.7,405.2 "/>
<path class="st4" d="M541.8,692.3l-4.7-3.5c0,0-3.1,17.5,0.4,20.2s16.6,7,16.6,12.3s29.8,12.3,30.7,4.4s-2.6-12.3-2.6-12.3
	s-14-14-15.8-16.6s-6.1-7.9-6.1-7.9L541.8,692.3z"/>
<path class="st3" d="M611.9,474.1c0,0-0.1,0.8-0.4,2.2c-0.2,1.3-0.5,3-0.8,5.2c-3.7,22.5-14.4,88.6-13.7,90.7c0.9,2.6,7,12.3,0,14.9
	c-1,0.6-1.7,1.4-2.2,2.4c-1.5,2.8-2.7,5.7-3.7,8.7c-4.2,12.1-8.6,31.5-11.2,45c-1.1,5.9-1.9,10.7-2.1,13.1c-0.1,0.6-0.1,1.2,0,1.7
	c0.9,3.5-5.3,15.8-7.9,19.3s-7,7-6.1,10.5s-21.9,13.1-24.5,7s-2.6-9.6-3.5-11.4s-1.8-14,2.6-15.8s1.8-32.4,6.1-38.6
	c1.5-2,3.7-9,6-17.3c0.9-3.3,1.8-6.7,2.8-10.2c3.7-14.3,7-28.6,7-28.6l-0.9-102.5l48.2-6.1l1.2,2.7l2.5,5.4L611.9,474.1z"/>
<path class="st4" d="M614.5,642.3c0,0,7-7,10.5,0s7,34.2,13.1,40.3s14,36.8,5.3,38.6s-18.4-2.6-19.3-7.9s-19.3-32.4-19.3-35
	s12.3-12.3,12.3-12.3L614.5,642.3z"/>
<path class="st3" d="M506.7,425.9c0,0,11.4,102.5,14,112.1s16.6,46.4,21,52.6s32.4,56.1,35.9,58.7s10.5,9.6,10.5,9.6
	s13.1,13.1,14.9,15.8s16.6-5.3,17.5-10.5s-0.9-14-1.8-17.5s1.8-8.8-0.9-11.4s-15.8-15.8-15.8-21.9s-22.8-42.1-31.5-49.9s-7-21-7-21
	V489l48.2-14.9c0,0-2.6-42.1-8.8-42.1S516.4,418,506.7,425.9z"/>
<circle class="st9" cx="577.7" cy="250.7" r="28.9"/>
<path class="st9" d="M568.1,273.5c0,0-3.5,13.1-7.9,16.6s11.4,18.4,11.4,18.4l29.8,1.8l5.3-16.6c0,0-9.6-19.3-7-31.5
	C602.2,249.8,568.1,273.5,568.1,273.5z"/>
<path class="st4" d="M555.8,288.4c0,0,7.9,0.9,9.6,3.5s14,10.5,23.7,8.8s15.8-4.4,17.5-3.5s5.3,19.3,5.3,19.3l-9.6,28l1.8,77.1
	l2.6,21c0,0,5.3-7-15.8-2.6s-48.2-3.5-57-4.4s-23.7-3.5-24.5-8.8s2.6-24.5,2.6-24.5l14-58.7l8.8-31.5L555.8,288.4z"/>
<path class="st6" d="M564.1,284.4c0,0-7.4-3.9-10-0.4c-2.6,3.5-35.9,8.8-35.9,11.4s-7,73.6-5.3,79.7s-3.5,13.1-3.5,13.1l-6.1,26.3
	c0,0-16.6,49.9-9.6,51.7s13.1,0,15.8,0s1.8-33.3,8.8-42.1c7-8.8,16.6-30.7,18.4-35s23.7-64.8,22.8-71.8S564.1,284.4,564.1,284.4z"/>
<path class="st6" d="M600.5,288.4c0,0,7,0,7.9,1.8s9.6,13.1,13.1,15.8s15.8,14,15.8,16.6c0,2.6-25.4,21.9-25.4,21.9
	s-10.5,51.7-5.3,69.2s13.1,59.6,9.6,62.2s-11.4,3.5-11.4,0s-5.3-41.2-9.6-49.1S577.7,369,583,354.9S600.5,288.4,600.5,288.4z"/>
<path class="st9" d="M484.8,375.1c0,0-0.9,27.2,8.8,41.2c6.3,9.4,11.5,19.4,15.8,29.8c0,0,15.8-4.4,18.4-9.6s19.3-0.9,19.3-2.6
	s-20.2-10.5-21.9-12.3s-7.9-1.8-11.4-5.3c-3.5-3.5-4.4-11.4-4.4-11.4l-3.5-22.8L484.8,375.1z"/>
<path class="st3" d="M557.8,232.8c-2.2-0.1-4.4-0.6-6.5-1.5c-4.4-2.4-5.6-9.1-2.2-12.9c0.9-0.9,2-1.8,3.1-2.5l6.7-4.5
	c2.9-2,6-4,9.4-5c3.1-0.7,6.4-0.9,9.6-0.6c6.3,0.2,12.5,1.3,18.4,3.3c5.9,2.2,11.4,5.8,14.9,10.9c5.6,8.2,5.7,19.2,2.6,28.6
	c-3.1,9.4-9,17.6-14.8,25.7l-3-14.7c-0.3-1.3-0.6-2.7-1.7-3.5c-2.7-1.9-6,2-9.3,2c-2.1,0-3.9-1.8-4.7-3.8c-0.7-2-1-4.2-1.1-6.3
	c-0.4-4.5-2-10.8-6.2-13.3C568.9,232.6,562.3,233.3,557.8,232.8z"/>
<path class="st8" d="M559.4,474.8c0,0,3,85.6,4.7,88.2s0-88.5,0-88.5L559.4,474.8z"/>
<path class="st6" d="M525.1,295.4h-7c0,0-29.8,40.3-26.3,42.9s0,9.6,0,9.6l-7,13.1c0,0-8.8,7.9-6.1,9.6s6.1,8.8,6.1,8.8
	s17.5-2.6,22.8,7.9L519,373L525.1,295.4z"/>
<path class="st9" d="M604.9,370.7c0,0-19.3,0.9-41.2-13.1l-21.9-9.6c0,0-19.3-29.8-21-24.5s2.6,15.8,2.6,15.8s-28.7,5.5-27.1,13.9
	c0.3,1.7,14.9-2.5,14.9-2.5s-2.6,16.6,12.3,17.5c14.9,0.9,19.3-2.6,19.3-2.6s63.1,52.6,73.6,35.9S604.9,370.7,604.9,370.7z"/>
<path class="st6" d="M627.7,319l9.6,3.5v26.3l3.5,5.3c0,0-0.9,10.5-3.5,13.1s-7.9,1.8-6.1,7.9c1.1,4,1.4,8.2,0.9,12.3
	c0,0-15.8,20.2-16.6,17.5s-13.1-35-14.9-35S618,319,618,319H627.7z"/>
<path class="st10" d="M512.4,451.8c0,0-9.1-8.8-4.5-9.2c4.5-0.4,20.3-9.2,22.9-4.8S512.4,451.8,512.4,451.8z"/>
</svg>
