<?xml version="1.0" encoding="utf-8"?>
<!-- Generator: Adobe Illustrator 24.3.0, SVG Export Plug-In . SVG Version: 6.00 Build 0)  -->
<svg version="1.1" id="Layer_1" xmlns="http://www.w3.org/2000/svg" xmlns:xlink="http://www.w3.org/1999/xlink" x="0px" y="0px"
	 viewBox="0 0 438.4 157.7" style="enable-background:new 0 0 438.4 157.7;" xml:space="preserve">
<style type="text/css">
	.st0{fill:#12284C;}
	.st1{clip-path:url(#SVGID_2_);}
	.st2{clip-path:url(#SVGID_4_);fill:#12284C;}
	.st3{clip-path:url(#SVGID_6_);}
	.st4{clip-path:url(#SVGID_8_);fill:#12284C;}
</style>
<g>
	<path class="st0" d="M0,9.5C0,4.2,4.2,0,9.5,0c5.4,0,9.5,4.2,9.5,9.5v30.9c5.6-4.3,13-7.6,22-7.6c20.6,0,37,15.6,37,40.4v41.6
		c0,5.4-4.3,9.7-9.5,9.7c-5.4,0-9.5-4.3-9.5-9.7V72.5c0-14.6-8.8-22-20-22c-10.9,0-20,7.5-20,22v42.3c0,5.4-4.2,9.7-9.5,9.7
		c-5.4,0-9.5-4.3-9.5-9.7V9.5z"/>
	<path class="st0" d="M97.3,78.8c0-25.7,19.6-46,46-46c13.5,0,24.1,5.4,30,10.8c2.1,1.9,3.5,4.5,3.5,7.3c0,2.4-0.7,4.5-2.8,6.9
		l-26.7,31.8c-1.9,2.3-4,3.1-6.6,3.1c-5.2,0-9-3.6-9-8.7c0-2.1,0.5-4.2,2.1-5.7l21-24.6c-2.9-2.1-7.6-3.1-11.5-3.1
		c-14.9,0-26.7,12.5-26.7,28.3c0,15.6,11.6,28.3,26.7,28.3c8.2,0,14.2-3.5,18.4-7.8c2.8-2.3,4.7-4.3,8.3-4.3c5.4,0,9.4,3.8,9.4,9.2
		c0,1.9-1,4.3-2.8,6.2c-6.6,8-18.6,14.4-33.3,14.4C117.1,124.8,97.3,104.5,97.3,78.8z"/>
	<path class="st0" d="M263.6,114c-7.6,6.8-17.7,10.8-28.8,10.8c-25,0-43.9-20.3-43.9-46c0-25.7,18.9-46,43.9-46
		c11.1,0,21.2,4,28.8,10.9V9.5c0-5.4,4.2-9.5,9.5-9.5c5.4,0,9.5,4.2,9.5,9.5v105.3c0,5.4-4.2,9.7-9.5,9.7c-5.4,0-9.5-4.3-9.5-9.7
		V114z M263.6,78.8v-1.2c-0.7-15.4-12.1-27.1-26.7-27.1c-14.9,0-26.7,12.1-26.7,28.3c0,16.1,11.8,28.3,26.7,28.3
		C251.8,107.1,263.6,94.9,263.6,78.8z"/>
	<path class="st0" d="M302.1,78.8c0-25.7,18.9-46,43.9-46c11.1,0,21.2,4,28.8,10.9v-1.2c0-5.4,4.2-9.5,9.5-9.5
		c5.4,0,9.5,4.2,9.5,9.5v69.2c0,26-20.8,46-46.8,46c-14.7,0-26.4-6.2-33.1-13.9c-1.7-2.1-2.8-4.5-2.8-6.4c0-5.4,4.2-9,9.4-9
		c3.8,0,5.9,2.3,8.3,4.3c4.7,4.3,10.6,7.3,18.2,7.3c15.1,0,26.5-11.6,27.6-26c-7.6,6.8-17.5,10.8-28.6,10.8
		C321,124.8,302.1,104.5,302.1,78.8z M374.8,80v-1.2c0-16.1-11.8-28.3-26.7-28.3c-14.9,0-26.7,12.1-26.7,28.3
		c0,16.1,11.8,28.3,26.7,28.3C362.6,107.1,374.1,95.6,374.8,80z"/>
	<path class="st0" d="M414.5,112.6c0-6.8,5.4-12,12-12c6.6,0,12,5.2,12,12c0,6.6-5.4,12-12,12C419.9,124.6,414.5,119.2,414.5,112.6z
		"/>
</g>
<g>
	<defs>
		<path id="SVGID_1_" d="M413.4-5335c0,0,12.1,51.1,45.3,85.6c33.2,34.5,48.3,105.1,48.3,105.1l33.2,141.2c0,0,58.8-7.5,55.8-22.5
			l-31.7-124.6c0,0-36.2-172.7-55.8-184.7C488.8-5347,413.4-5335,413.4-5335"/>
	</defs>
	<clipPath id="SVGID_2_">
		<use xlink:href="#SVGID_1_"  style="overflow:visible;"/>
	</clipPath>
	<g class="st1">
		<defs>
			<rect id="SVGID_3_" x="-939.5" y="-6113.1" width="2055.4" height="12029.6"/>
		</defs>
		<clipPath id="SVGID_4_">
			<use xlink:href="#SVGID_3_"  style="overflow:visible;"/>
		</clipPath>
		<rect x="403.4" y="-5350.4" class="st2" width="202.7" height="357.3"/>
	</g>
</g>
<g>
	<defs>
		<path id="SVGID_5_" d="M274.6-5444.8c0,0,12.1,51.1,45.3,85.6c33.2,34.5,48.3,105.1,48.3,105.1l33.2,141.2c0,0,58.8-7.5,55.8-22.5
			l-31.7-124.6c0,0-36.2-172.7-55.8-184.7C350-5456.8,274.6-5444.8,274.6-5444.8"/>
	</defs>
	<clipPath id="SVGID_6_">
		<use xlink:href="#SVGID_5_"  style="overflow:visible;"/>
	</clipPath>
	<g class="st3">
		<defs>
			<rect id="SVGID_7_" x="-1078.3" y="-6222.9" width="2055.4" height="12029.6"/>
		</defs>
		<clipPath id="SVGID_8_">
			<use xlink:href="#SVGID_7_"  style="overflow:visible;"/>
		</clipPath>
		<rect x="264.6" y="-5460.2" class="st4" width="202.7" height="357.3"/>
	</g>
</g>
</svg>
