<?xml version="1.0" encoding="utf-8"?>
<!-- Generator: Adobe Illustrator 24.3.0, SVG Export Plug-In . SVG Version: 6.00 Build 0)  -->
<svg version="1.1" id="a8897f4c-2937-4134-8b3a-fee1040aeff6"
	 xmlns="http://www.w3.org/2000/svg" xmlns:xlink="http://www.w3.org/1999/xlink" x="0px" y="0px" viewBox="0 0 1011.1 751"
	 style="enable-background:new 0 0 1011.1 751;" xml:space="preserve">
<style type="text/css">
	.st0{fill:#12264A;}
	.st1{fill:#FFB8B8;}
	.st2{fill:#EAD6D6;}
	.st3{fill:#92B9A4;}
	.st4{fill:#5280A1;}
	.st5{fill:#87686E;}
	.st6{fill:#F2F2F2;}
	.st7{fill:#A0616A;}
	.st8{fill:#B97550;}
</style>
<path class="st0" d="M467.8,226.7c-26.2-44.3-78.1-46.3-78.1-46.3s-50.5-6.5-82.9,61c-30.2,62.9-71.9,123.6-6.7,138.3l11.8-36.6
	l7.3,39.4c9.3,0.7,18.6,0.8,27.9,0.5c69.8-2.3,136.3,0.7,134.2-24.4C478.4,325.2,493,269.4,467.8,226.7z"/>
<path class="st1" d="M360.2,319.4c9,20,14.7,43.8,18.1,70.2l72.5-4.5c-16.7-23.6-22.2-50.7-15.9-81.6L360.2,319.4z"/>
<path class="st2" d="M360.2,319.4c9,20,14.7,43.8,18.1,70.2l72.5-4.5c-16.7-23.6-22.2-50.7-15.9-81.6L360.2,319.4z"/>
<path class="st2" d="M23.9,699.7c0,0-37.5,20.1-18.5,37.3s44.2-22.7,44.2-22.7L23.9,699.7z"/>
<polygon class="st3" points="482.6,641.1 482,668.6 480.8,727.9 480.8,727.9 480.4,745.1 240.4,745.1 250.2,691 250.2,690.9 
	258.9,642.5 262.8,620.8 262.8,620.7 459.9,593.6 "/>
<path class="st3" d="M482.6,641.1l-0.6,27.5c-69.7-1.8-177.8-18.6-223.1-26.1l3.9-21.7l197.1-27.2L482.6,641.1z"/>
<circle class="st2" cx="395.4" cy="282" r="56.6"/>
<path class="st4" d="M504.1,671.7c0,0,6.8,61.2-34,56.6l-6.8-61.2l-36.2-36.2l-102-2.3l-74.8,70.2c0,0-2.3-72.5,6.8-79.3
	s29.5-22.7,29.5-22.7v-11.3l-61.2-124.6c0,0,36.2-74.8,65.7-77l38.5-2.3c0,0,13.6-6.8,13.6-9.1s-2.3-20.4,9.1-15.9
	c0,0,1-23.2,13-16.2c0,0,37.6,29.5,75.7,1.3c0,0,17.8-3.3,15.5,5.8s0,15.9,4.5,15.9s24.9,6.8,24.9,11.3c0,1,1.5,10.4,3.8,24.5l0,0
	c8.4,51.5,27.9,165.8,27.9,165.8S538.1,594.7,504.1,671.7z"/>
<path class="st4" d="M241.3,449.7L225.4,461l-145,185.8L3.4,708c0,0,43-6.8,34,29.5l265.1-151.8L241.3,449.7z"/>
<path class="st3" d="M489.8,399.4L489.8,399.4c-3,17.7-101.2,14-114.8,14s-24.9-2.3-38.5-11.3s-6.8-20.4-6.8-20.4
	s11.6-8.8,11.6-11.1s-2.3-20.4,9.1-15.9c0,0,1-23.2,13-16.2c0,0,39.6,31.5,77.8,3.3c0,0,17.8-3.3,15.5,5.8s0,15.9,4.5,15.9
	s24.9,6.8,24.9,11.3C486,375.9,487.5,385.3,489.8,399.4z"/>
<path class="st2" d="M478.1,314.9c0,0-18.1-38.5-36.2-20.4s20.4,45.3,20.4,45.3L478.1,314.9z"/>
<path class="st4" d="M478.1,305.8c0,0-28,35.4-36.6,38.1c0,0,25.3,100.1,57,127.3l18.1,92.9c0,0,77-31.7,58.9-83.8
	c-0.2-0.5-0.4-1-0.5-1.6c-15.1-43.4-36-84.6-62.1-122.4L478.1,305.8z"/>
<polygon class="st0" points="456.2,222.5 405,195.6 334.3,206.6 319.6,271.3 356.1,269.9 366.2,246.1 366.2,269.5 383.1,268.8 
	392.8,231 398.9,271.3 458.7,270 "/>
<path class="st5" d="M940.1,571.1l29.1,103.7c0,0-6,91.8,22,73.9c28.6-18.4,18-95.8,18-95.8l-16.8-93L940.1,571.1z"/>
<path class="st6" d="M955.7,280.3l24,24v114.4c0,0,14.1,21.2,11.3,26.8s-5.6,5.6-2.8,9.9s5.6,7.1,2.8,9.9s-2.8,9.9,0,12.7
	s8.5,7.1,4.2,11.3s-9.9,1.4-4.2,16.9c5.7,15.5,15.5,19.8,12.7,25.4s-2.8,19.8-2.8,19.8l-60.7,8.5l-12.7-159.5L955.7,280.3z"/>
<polygon class="st0" points="1003.7,550 933.1,552.8 935.9,582.4 998,571.1 "/>
<polygon class="st7" points="809.5,132.8 801.1,217.5 887.2,230.2 893.5,181.5 899.9,132.8 "/>
<polygon class="st5" points="809.5,132.3 801.1,217 887.2,229.7 893.5,181 899.9,132.3 "/>
<path class="st5" d="M622.5,535.8l48,103.1c0,0,8.5,48,21.2,49.4s25.4-49.4,25.4-49.4l-16.9-26.8l-19.8-76.3H622.5z"/>
<path class="st8" d="M951.1,746.1H679.7c2.2-34,3.5-55,3.5-55l3.6-5.7l17.5-27.5l12.5-19.6l4.4-6.8l1.6-2.5l17.1-3.1l176.3-32.2
	c2.9,13.1,7,25.8,12.3,38.1c1.2,2.7,2.5,5.5,3.9,8.2c4.4,8.7,9.8,16.8,16.3,22.9c1.5,1.4,2.5,5,3.2,10.7
	C953.5,687.4,953,713,951.1,746.1z"/>
<circle class="st5" cx="856.8" cy="92.6" r="67.8"/>
<path class="st6" d="M705.8,230.9l-9.9-5.6c0,0-43.8,29.6-57.9,96c-14.1,66.4-24,83.3-24,83.3s-14.1,2.8-4.2,12.7s9.9,8.5,1.4,14.1
	s-14.1-5.6-8.5,5.6c5.6,11.3,12.7,8.5,7.1,15.5s-15.5,7.1-9.9,12.7c5.6,5.6-5.6,18.4,1.4,24s9.9,7.1,9.9,16.9
	c0,5.8,0.9,11.5,2.8,16.9h73.4c0,0-14.1-26.8-9.9-32.5c4.2-5.6,5.6-11.3,2.8-14.1s-11.3,2.8-2.8-4.2c8.5-7.1,11.3-2.8,8.5-11.3
	s-8.5-4.2-2.8-8.5c5.6-4.2,9.9-2.8,7.1-7.1s-8.5-4.2-2.8-7.1c5.6-2.8,9.9,0,8.5-7.1s-2.8-4.2,0-7.1c2.8-2.8,32.5-98.8,32.5-101.6
	S705.8,230.9,705.8,230.9z"/>
<polygon class="st0" points="691.7,517.5 602.7,523.1 625.3,544.3 687.4,545.7 "/>
<path class="st0" d="M717.1,623.4l-18.4,33.9c0,0,55.1,7.1,74.8,14.1s70.6,16.9,70.6,16.9l12.7-49.4L717.1,623.4z"/>
<polygon class="st0" points="878,638.9 893.5,685.5 955.7,672.8 948.6,629 "/>
<path class="st6" d="M903.4,182.9c0,0-4.2-2.8-14.1,2.8c-9.9,5.6-42.4,8.5-57.9-8.5c-15.5-16.9-26.8-31.1-31.1-28.2
	s-7.1,35.3-7.1,35.3l-14.1,11.3l-83.3,29.6l7.2,190.6l12.7,43.8c0,0-9.9,33.9,2.8,53.6c12.7,19.8-7.1,26.8-7.1,26.8
	s-4.2,5.6-1.4,19.8c2.8,14.1-2.8,66.4-2.8,66.4s120,53.6,245.6,7.1l-14.1-53.6l-7.1-120c0,0,7.1-19.8,5.6-28.2
	c-1.4-8.5,42.4-127.1,42.4-127.1s-7.1-59.3-43.8-72S893.4,207,893.4,207S910.5,188.6,903.4,182.9z"/>
<path class="st0" d="M788.6,101.2c0,0-7-10.6-4.3-21.9c1.6-6.5,2.3-13.1,1.9-19.8c0,0,5.7-18.4,11.4-28.7s3-14.6,20.8-17.9
	c17.9-3.2,10.6-26.5,57.6-1.4c3.2,4.5,8.9,6.7,14.3,5.4c9.7-1.9,13.3,11.6,13.3,11.6s6.5-3.8,8.9,1.6s19.8-3.2,19.8,33.3
	s-19.7,69.4-19.7,69.4s1.4-61.5-30.8-67.7s-66.9-24.4-75.2-1.1S788.6,101.2,788.6,101.2z"/>
<ellipse class="st5" cx="913.3" cy="107.4" rx="6.4" ry="8.5"/>
</svg>
