<?xml version="1.0" encoding="utf-8"?>
<!-- Generator: Adobe Illustrator 24.3.0, SVG Export Plug-In . SVG Version: 6.00 Build 0)  -->
<svg version="1.1" id="Layer_1" xmlns="http://www.w3.org/2000/svg" xmlns:xlink="http://www.w3.org/1999/xlink" x="0px" y="0px"
	 viewBox="0 0 1080 899.4" style="enable-background:new 0 0 1080 899.4;" xml:space="preserve">
<style type="text/css">
	.st0{fill:#FFFFFF;}
	.st1{fill-rule:evenodd;clip-rule:evenodd;fill:#FFFFFF;}
</style>
<g>
	<path class="st0" d="M1015.2,463.2l32.1-20.3c2.6-1.8,5.7-2.7,9.1-2.5c7.9,0.5,13.9,7.3,13.4,15.2c-1.8,26.6-8,52.4-18.1,76.3
		c-10.3,24.3-24.5,46.7-42.1,66.3c-5.3,5.9-14.4,6.4-20.3,1.1c-5.9-5.3-6.4-14.4-1.1-20.3c15.5-17.3,28-36.9,37-58.2
		c5.1-12,9-24.6,11.8-37.5l-31.9,20.2c-3,2.1-6.8,3.1-10.7,2.5c-7.8-1.3-13.1-8.8-11.8-16.6c13.6-79.3,5.6-163.2-24.1-236
		c-23.3-57.1-60.1-107.3-110.3-143c0.3,14.5-1.2,29.8-2.7,44.5c-1.4,13.7-2.7,26.9-2.3,37.3c0.3,7.9-5.9,14.6-13.8,14.9
		c-5,0.2-9.5-2.2-12.2-6c-55.5-70-132.4-124.6-215.9-152.4C535,26.8,464.5,21.7,397.2,39.3c16.1,10.3,31.9,23.3,47,35.9
		c13.2,10.9,26,21.5,37.3,28.8l0,0c4.4,2.8,7.1,7.9,6.5,13.5c-0.8,7.9-7.8,13.7-15.7,12.9c-64.2-6.4-130.6-3.5-192.4,12.5
		c-39.9,10.4-77.9,26.3-112,48.7c14.6,1.4,29.4,4.3,44,8c29.7,7.6,58.5,18.8,83.7,29l0,0c4.9,2,8.5,6.5,8.9,12.1
		c0.7,7.9-5.2,14.8-13,15.5c-56.9,5.1-110.4,25.2-155.6,57.1c-38.5,27.1-71,62.8-94.5,104.9l88.3-7.5c7.9-0.6,14.9,5.2,15.5,13.2
		c0.6,6.8-3.7,12.9-10,14.9c-0.6,2.1-1.7,4-3.3,5.7c-36.4,38.7-62,85.2-75.5,134.9c-10.9,40.3-13.9,82.7-8.3,124.9
		c3.4-3.7,6.9-7.2,10.5-10.6C70,682.7,82.3,673,95.3,664.5l0,0c2.4-1.6,5.4-2.5,8.5-2.3c7.9,0.3,14.1,7,13.7,15
		c-1.6,35.8,3,71.3,13.3,105c7.5,24.4,18,47.9,31.3,70c4.1-8.2,9.3-15.7,15.4-22.4c13.3-14.6,31-25.1,51.1-29.4
		c0.4-0.1,0.8-0.1,1.1-0.2c96.7-18.2,178.5-52,245.4-101.3c63.2-46.6,113.3-107.1,150.1-181.7c-15-8.6-27-21-35-35.7
		c-10.4-19.1-14.1-41.8-8.9-64.3c5.2-22.6,18.4-41.4,36.1-54.1c17.7-12.6,39.8-18.9,62.8-16.5c23.1,2.5,43.4,13.4,58,29.4
		c7.8,8.5,13.9,18.5,18,29.5c10.3-9.6,20.8-16.4,31.3-20.3C917.5,337.2,927,547,944.3,615.3c6.1,24.3,13.4,44.5,21.8,60.6
		c47.5,9.7,81.1,29,97.6,50.4c8.4,10.9,12.8,22.5,12.8,34.1c0,12.1-4.6,23.6-14.3,33.6c-16.2,16.9-47.8,29.7-96.4,32.7
		c-0.5,0-1.1,0-1.6,0l-467.1,1.5c-7.9,0-14.3-6.4-14.3-14.3c0-7.9,6.4-14.3,14.3-14.3l467-1.4l0,0c40.7-2.5,65.8-11.8,77.4-23.9
		c4.2-4.4,6.3-9.1,6.3-13.7c0-5.1-2.3-10.8-6.8-16.6c-13.4-17.2-43.1-33.2-86.7-41c-4.5-0.8-8.1-3.6-10.1-7.3
		c-11.1-19.3-20.3-43.7-27.8-73.2c-12.6-49.9-29.1-243.3-118.7-210.1c-12.2,4.5-24.9,15.4-38.1,32.7c-2.6,3.6-6.8,6-11.6,6.1
		c-7.9,0.1-14.4-6.2-14.5-14.2c-0.2-15.9-6.3-30.4-16.4-41.5c-10-11-24-18.5-39.8-20.2c-15.8-1.7-31,2.7-43.2,11.3
		c-12.1,8.6-21.2,21.6-24.8,37.1c-3.6,15.5-1.1,31.1,6.1,44.2c7,12.8,18.5,23.2,33,28.7c0.7,0.2,1.3,0.4,2,0.7
		c7.2,3.3,10.4,11.9,7,19.1c-39.5,85-94.6,153.6-165.4,205.7c-70.4,51.8-156.1,87.3-257.1,106.3l-0.4,0.1
		c-14.3,3.1-26.7,10.4-36.1,20.6c-9.3,10.2-15.6,23.2-17.4,37.7c-1,7.9-8.1,13.5-16,12.5c-4.5-0.5-8.2-3.1-10.4-6.6
		c-23-31.1-40.3-65.7-51.5-102.3c-8.4-27.6-13.4-56.3-14.6-85.3c-3.5,3-7,6.1-10.3,9.2c-10,9.6-19.2,20-27.3,31.2
		c-4.6,6.4-13.6,7.9-20,3.3c-2.9-2.1-4.8-5.2-5.6-8.4l0,0c-13-56.5-11.5-114.3,3.2-168.5C41.4,525,64,480.8,95.5,442.4L18.1,449
		c-7.9,0.6-14.9-5.2-15.5-13.2c-0.2-2.9,0.4-5.6,1.6-8c26.1-56.3,66.2-103.6,115.2-138.1c34.8-24.5,74.2-42.7,116.2-53.2
		c-10.2-3.4-20.5-6.6-30.8-9.2c-26.9-6.9-54.1-10.5-78.4-6.3c-7.8,1.3-15.2-4-16.5-11.8c-0.9-5.4,1.3-10.6,5.4-13.7
		c45.5-39.6,99.6-65.4,157.4-80.4c50-13,102.6-17.8,154.8-16.4l-1.7-1.4c-23.6-19.5-48.8-40.3-71.1-47c-7.6-2.3-11.9-10.3-9.7-17.9
		c1.3-4.5,4.6-7.8,8.7-9.3l0,0c83.5-32,173.2-29.2,256.6-1.4C688,47.5,760.2,95.1,816.5,156.3l0.4-4.2c2.4-24,5-49.7-1.2-65.7
		c-2.8-7.4,0.9-15.7,8.3-18.5c4.1-1.6,8.5-1.1,12.1,0.9l0,0c69.8,39.1,119.3,101.5,148.9,173.9C1013,311,1023,388.3,1015.2,463.2"/>
	<path class="st1" d="M776.4,588.8c9,18.9,27.2,29.1,40.5,22.8c13.3-6.4,16.8-26.9,7.8-45.8c-9-18.9-27.2-29.1-40.5-22.8
		C770.8,549.3,767.3,569.9,776.4,588.8"/>
</g>
</svg>
