<?xml version="1.0" encoding="utf-8"?>
<!-- Generator: Adobe Illustrator 24.3.0, SVG Export Plug-In . SVG Version: 6.00 Build 0)  -->
<svg version="1.1" id="a07b0c17-3700-4c07-9cd3-d5e614437a2a"
	 xmlns="http://www.w3.org/2000/svg" xmlns:xlink="http://www.w3.org/1999/xlink" x="0px" y="0px" viewBox="0 0 668.4 806.9"
	 style="enable-background:new 0 0 668.4 806.9;" xml:space="preserve">
<style type="text/css">
	.st0{clip-path:url(#SVGID_2_);}
	.st1{clip-path:url(#SVGID_4_);fill:#F2F2F2;}
	.st2{clip-path:url(#SVGID_6_);}
	.st3{clip-path:url(#SVGID_8_);fill:#87BBA2;}
	.st4{clip-path:url(#SVGID_10_);}
	.st5{clip-path:url(#SVGID_12_);fill:#3F3D56;}
	.st6{clip-path:url(#SVGID_14_);}
	.st7{clip-path:url(#SVGID_16_);fill:#FFFFFF;}
	.st8{clip-path:url(#SVGID_18_);}
	.st9{clip-path:url(#SVGID_20_);fill:#E6E6E6;}
	.st10{clip-path:url(#SVGID_22_);}
	.st11{clip-path:url(#SVGID_24_);fill:#3F3D56;}
	.st12{clip-path:url(#SVGID_26_);}
	.st13{clip-path:url(#SVGID_28_);fill:#3F3D56;}
	.st14{clip-path:url(#SVGID_30_);}
	.st15{clip-path:url(#SVGID_32_);fill:#0A264C;}
	.st16{clip-path:url(#SVGID_34_);}
	.st17{clip-path:url(#SVGID_36_);fill:#87BBA2;}
	.st18{clip-path:url(#SVGID_38_);}
	.st19{clip-path:url(#SVGID_40_);fill:#A0835C;}
	.st20{clip-path:url(#SVGID_42_);}
	.st21{clip-path:url(#SVGID_44_);fill:#D0CDE1;}
	.st22{clip-path:url(#SVGID_46_);}
	.st23{clip-path:url(#SVGID_48_);fill:#A0835C;}
	.st24{clip-path:url(#SVGID_50_);}
	.st25{clip-path:url(#SVGID_52_);fill:#A0835C;}
	.st26{clip-path:url(#SVGID_54_);}
	.st27{clip-path:url(#SVGID_56_);fill:#0A264C;}
	.st28{clip-path:url(#SVGID_58_);}
	.st29{clip-path:url(#SVGID_60_);fill:#0A264C;}
	.st30{clip-path:url(#SVGID_62_);}
	.st31{clip-path:url(#SVGID_64_);fill:#0A264C;}
	.st32{clip-path:url(#SVGID_66_);}
	.st33{clip-path:url(#SVGID_68_);fill:#0A264C;}
	.st34{clip-path:url(#SVGID_70_);}
	.st35{clip-path:url(#SVGID_72_);fill:#C37247;}
	.st36{clip-path:url(#SVGID_74_);}
	.st37{clip-path:url(#SVGID_76_);fill:#C37247;}
	.st38{clip-path:url(#SVGID_78_);}
	.st39{clip-path:url(#SVGID_80_);fill:#2F2E41;}
</style>
<g>
	<defs>
		<path id="SVGID_1_" d="M262.2,184.7c0,0,0.1,0.1,0.2,0.2v-0.2l0,0.2c2.5,2.4,30.2,29.7,41,57.4c3.6-4,6.1-6.4,6.1-6.4s0,0,0.1,0.1
			l0-0.1l0,0.1c2,2,29.6,29.1,29.6,50.7c0,20.8-11.5,29-26.4,30l1.1,20.5h-3l-0.3-20.4c-0.4,0-0.8,0-1.1,0c-11,0-20.5-3.5-25.7-12.4
			c-5.2,2.1-10.8,3.3-16.4,3.6l1.6,31.3h-4.6l-0.5-31.1c-0.6,0-1.2,0-1.7,0c-25.1,0-45.4-11.9-45.4-46
			C216.8,228,262.2,184.7,262.2,184.7"/>
	</defs>
	<clipPath id="SVGID_2_">
		<use xlink:href="#SVGID_1_"  style="overflow:visible;"/>
	</clipPath>
	<g class="st0">
		<defs>
			<rect id="SVGID_3_" x="-1228.5" y="-333.2" width="2055.4" height="12029.6"/>
		</defs>
		<clipPath id="SVGID_4_">
			<use xlink:href="#SVGID_3_"  style="overflow:visible;"/>
		</clipPath>
		<rect x="206.7" y="174.6" class="st1" width="142.5" height="174.6"/>
	</g>
</g>
<g>
	<defs>
		<path id="SVGID_5_" d="M517.9,273c0,56.5,33.7,76.3,75.3,76.3c41.6,0,75.3-19.7,75.3-76.3c0-56.5-75.3-128.5-75.3-128.5
			S517.9,216.4,517.9,273"/>
	</defs>
	<clipPath id="SVGID_6_">
		<use xlink:href="#SVGID_5_"  style="overflow:visible;"/>
	</clipPath>
	<g class="st2">
		<defs>
			<rect id="SVGID_7_" x="-1228.5" y="-333.2" width="2055.4" height="12029.6"/>
		</defs>
		<clipPath id="SVGID_8_">
			<use xlink:href="#SVGID_7_"  style="overflow:visible;"/>
		</clipPath>
		<rect x="507.8" y="134.5" class="st3" width="170.6" height="224.8"/>
	</g>
</g>
<g>
	<defs>
		<polygon id="SVGID_9_" points="594.4,339.1 593.7,291.7 562,233 593.6,284.2 593.2,262.9 571.4,220.4 593.1,257.2 593.1,257.2 
			592.5,218.9 569.2,185.1 592.4,212.9 592,142.5 594.4,235.6 594.2,231.8 618,194.9 594.6,239.2 596.8,282 596.9,280.9 
			624.3,242.1 597,284.9 597.3,290.2 597.3,290.3 597.3,290.8 602.9,399.4 595.4,399.4 594.5,343.3 567.3,300.6 		"/>
	</defs>
	<clipPath id="SVGID_10_">
		<use xlink:href="#SVGID_9_"  style="overflow:visible;"/>
	</clipPath>
	<g class="st4">
		<defs>
			<rect id="SVGID_11_" x="-1228.5" y="-333.2" width="2055.4" height="12029.6"/>
		</defs>
		<clipPath id="SVGID_12_">
			<use xlink:href="#SVGID_11_"  style="overflow:visible;"/>
		</clipPath>
		<rect x="552" y="132.5" class="st5" width="82.3" height="277"/>
	</g>
</g>
<g>
	<defs>
		<polygon id="SVGID_13_" points="346.4,0 493.8,225.7 493.8,395.4 200.7,395.4 200.7,223.2 		"/>
	</defs>
	<clipPath id="SVGID_14_">
		<use xlink:href="#SVGID_13_"  style="overflow:visible;"/>
	</clipPath>
	<g class="st6">
		<defs>
			<rect id="SVGID_15_" x="-1228.5" y="-333.2" width="2055.4" height="12029.6"/>
		</defs>
		<clipPath id="SVGID_16_">
			<use xlink:href="#SVGID_15_"  style="overflow:visible;"/>
		</clipPath>
		<rect x="190.7" y="-10" class="st7" width="313.1" height="415.5"/>
	</g>
</g>
<g>
	<defs>
		<path id="SVGID_17_" d="M359,447.6l44.4-51c-9.9-22.7-26.6-37.8-49.9-45.4l-44.4,51C338.4,402.5,354.8,417.9,359,447.6"/>
	</defs>
	<clipPath id="SVGID_18_">
		<use xlink:href="#SVGID_17_"  style="overflow:visible;"/>
	</clipPath>
	<g class="st8">
		<defs>
			<rect id="SVGID_19_" x="-1228.5" y="-333.2" width="2055.4" height="12029.6"/>
		</defs>
		<clipPath id="SVGID_20_">
			<use xlink:href="#SVGID_19_"  style="overflow:visible;"/>
		</clipPath>
		<rect x="299.1" y="341.2" class="st9" width="114.4" height="116.4"/>
	</g>
</g>
<g>
	<defs>
		<polygon id="SVGID_21_" points="359.3,363.9 358.5,363.3 327.2,394.8 328,395.4 		"/>
	</defs>
	<clipPath id="SVGID_22_">
		<use xlink:href="#SVGID_21_"  style="overflow:visible;"/>
	</clipPath>
	<g class="st10">
		<defs>
			<rect id="SVGID_23_" x="-1228.5" y="-333.2" width="2055.4" height="12029.6"/>
		</defs>
		<clipPath id="SVGID_24_">
			<use xlink:href="#SVGID_23_"  style="overflow:visible;"/>
		</clipPath>
		<rect x="317.1" y="353.3" class="st11" width="52.2" height="52.2"/>
	</g>
</g>
<g>
	<defs>
		<polygon id="SVGID_25_" points="363.3,370 362.5,369.3 331.2,400.8 332,401.5 		"/>
	</defs>
	<clipPath id="SVGID_26_">
		<use xlink:href="#SVGID_25_"  style="overflow:visible;"/>
	</clipPath>
	<g class="st12">
		<defs>
			<rect id="SVGID_27_" x="-1228.5" y="-333.2" width="2055.4" height="12029.6"/>
		</defs>
		<clipPath id="SVGID_28_">
			<use xlink:href="#SVGID_27_"  style="overflow:visible;"/>
		</clipPath>
		<rect x="321.2" y="359.3" class="st13" width="52.2" height="52.2"/>
	</g>
</g>
<g>
	<defs>
		<polygon id="SVGID_29_" points="355.3,233.4 309.7,206.7 244.9,320.6 290.5,347.3 		"/>
	</defs>
	<clipPath id="SVGID_30_">
		<use xlink:href="#SVGID_29_"  style="overflow:visible;"/>
	</clipPath>
	<g class="st14">
		<defs>
			<rect id="SVGID_31_" x="-1228.5" y="-333.2" width="2055.4" height="12029.6"/>
		</defs>
		<clipPath id="SVGID_32_">
			<use xlink:href="#SVGID_31_"  style="overflow:visible;"/>
		</clipPath>
		<rect x="234.9" y="196.7" class="st15" width="130.5" height="160.6"/>
	</g>
</g>
<g>
	<defs>
		<path id="SVGID_33_" d="M142.4,350.5c0,0-25-12.1-42.8-7.6l42.8-116.2v-11.9L81.8,359.9c-15.2,28.7-34.3,94.3-1.6,99.5
			c37.1,6,103.8,28.3,103.8,28.3L198.7,358L142.4,350.5z"/>
	</defs>
	<clipPath id="SVGID_34_">
		<use xlink:href="#SVGID_33_"  style="overflow:visible;"/>
	</clipPath>
	<g class="st16">
		<defs>
			<rect id="SVGID_35_" x="-1228.5" y="-333.2" width="2055.4" height="12029.6"/>
		</defs>
		<clipPath id="SVGID_36_">
			<use xlink:href="#SVGID_35_"  style="overflow:visible;"/>
		</clipPath>
		<rect x="52.2" y="204.7" class="st17" width="156.6" height="293.1"/>
	</g>
</g>
<g>
	<defs>
		<path id="SVGID_37_" d="M287,311.3c0,0,42-53,52.9-34.3c10.9,18.7-48.9,50.2-48.9,50.2L287,311.3z"/>
	</defs>
	<clipPath id="SVGID_38_">
		<use xlink:href="#SVGID_37_"  style="overflow:visible;"/>
	</clipPath>
	<g class="st18">
		<defs>
			<rect id="SVGID_39_" x="-1228.5" y="-333.2" width="2055.4" height="12029.6"/>
		</defs>
		<clipPath id="SVGID_40_">
			<use xlink:href="#SVGID_39_"  style="overflow:visible;"/>
		</clipPath>
		<rect x="277" y="263" class="st19" width="74.3" height="74.3"/>
	</g>
</g>
<g>
	<defs>
		<path id="SVGID_41_" d="M275,315.3l18.4-8.2c0,0,11.7,24.6,11.7,28.7c0,4.1-18.4,5.5-18.4,5.5L275,315.3z"/>
	</defs>
	<clipPath id="SVGID_42_">
		<use xlink:href="#SVGID_41_"  style="overflow:visible;"/>
	</clipPath>
	<g class="st20">
		<defs>
			<rect id="SVGID_43_" x="-1228.5" y="-333.2" width="2055.4" height="12029.6"/>
		</defs>
		<clipPath id="SVGID_44_">
			<use xlink:href="#SVGID_43_"  style="overflow:visible;"/>
		</clipPath>
		<rect x="265" y="297.1" class="st21" width="50.2" height="54.2"/>
	</g>
</g>
<g>
	<defs>
		<path id="SVGID_45_" d="M212.8,120.4c-21.1,0-38.1,17.1-38.1,38.1s17.1,38.1,38.1,38.1s38.1-17.1,38.1-38.1
			S233.8,120.4,212.8,120.4"/>
	</defs>
	<clipPath id="SVGID_46_">
		<use xlink:href="#SVGID_45_"  style="overflow:visible;"/>
	</clipPath>
	<g class="st22">
		<defs>
			<rect id="SVGID_47_" x="-1228.5" y="-333.2" width="2055.4" height="12029.6"/>
		</defs>
		<clipPath id="SVGID_48_">
			<use xlink:href="#SVGID_47_"  style="overflow:visible;"/>
		</clipPath>
		<rect x="164.6" y="110.4" class="st23" width="96.3" height="96.3"/>
	</g>
</g>
<g>
	<defs>
		<path id="SVGID_49_" d="M182.7,160.6c0,0-16.5,48.4-28.6,51.3c-12,2.9,46.6,24.9,46.6,24.9s18-41.1,27-51.3
			C236.8,175.3,182.7,160.6,182.7,160.6"/>
	</defs>
	<clipPath id="SVGID_50_">
		<use xlink:href="#SVGID_49_"  style="overflow:visible;"/>
	</clipPath>
	<g class="st24">
		<defs>
			<rect id="SVGID_51_" x="-1228.5" y="-333.2" width="2055.4" height="12029.6"/>
		</defs>
		<clipPath id="SVGID_52_">
			<use xlink:href="#SVGID_51_"  style="overflow:visible;"/>
		</clipPath>
		<rect x="142.5" y="150.5" class="st25" width="96.3" height="96.3"/>
	</g>
</g>
<g>
	<defs>
		<path id="SVGID_53_" d="M35.3,704.6c0,0-38.1,30.1-35.1,33.2c3.1,3,35.1,51.3,62.5,55.8c27.5,4.5,39.7,4.5,39.7,0
			c0-4.5-7.6-15.1-21.4-19.6c-13.7-4.5-15.3-34.7-13.7-40.7C68.8,727.2,35.3,704.6,35.3,704.6"/>
	</defs>
	<clipPath id="SVGID_54_">
		<use xlink:href="#SVGID_53_"  style="overflow:visible;"/>
	</clipPath>
	<g class="st26">
		<defs>
			<rect id="SVGID_55_" x="-1228.5" y="-333.2" width="2055.4" height="12029.6"/>
		</defs>
		<clipPath id="SVGID_56_">
			<use xlink:href="#SVGID_55_"  style="overflow:visible;"/>
		</clipPath>
		<rect x="-10" y="694.5" class="st27" width="122.4" height="112.4"/>
	</g>
</g>
<g>
	<defs>
		<path id="SVGID_57_" d="M151.3,481.7l-23.8,112.7c0,0-98.3,111.2-95.3,112.7c3,1.5,32.8,31.6,38.7,31.6
			c6,0,108.7-117.2,108.7-117.2l37.2-97.7L151.3,481.7z"/>
	</defs>
	<clipPath id="SVGID_58_">
		<use xlink:href="#SVGID_57_"  style="overflow:visible;"/>
	</clipPath>
	<g class="st28">
		<defs>
			<rect id="SVGID_59_" x="-1228.5" y="-333.2" width="2055.4" height="12029.6"/>
		</defs>
		<clipPath id="SVGID_60_">
			<use xlink:href="#SVGID_59_"  style="overflow:visible;"/>
		</clipPath>
		<rect x="22.1" y="471.7" class="st29" width="204.7" height="277"/>
	</g>
</g>
<g>
	<defs>
		<path id="SVGID_61_" d="M124.5,444.9c0,0,12.1,51.1,45.3,85.6c33.2,34.5,48.3,105.1,48.3,105.1l33.2,141.2c0,0,58.8-7.5,55.8-22.5
			l-31.7-124.6c0,0-36.2-172.7-55.8-184.7C199.9,432.9,124.5,444.9,124.5,444.9"/>
	</defs>
	<clipPath id="SVGID_62_">
		<use xlink:href="#SVGID_61_"  style="overflow:visible;"/>
	</clipPath>
	<g class="st30">
		<defs>
			<rect id="SVGID_63_" x="-1228.5" y="-333.2" width="2055.4" height="12029.6"/>
		</defs>
		<clipPath id="SVGID_64_">
			<use xlink:href="#SVGID_63_"  style="overflow:visible;"/>
		</clipPath>
		<rect x="114.4" y="429.6" class="st31" width="202.7" height="357.3"/>
	</g>
</g>
<g>
	<defs>
		<path id="SVGID_65_" d="M257.9,769.4c0,0-8.8,30.9-2.9,34.1c5.9,3.3,110.4,9.8,116.3-13c0,0,2.9-11.4-20.6-11.4
			c-23.6,0-48.6-24.4-48.6-24.4L257.9,769.4z"/>
	</defs>
	<clipPath id="SVGID_66_">
		<use xlink:href="#SVGID_65_"  style="overflow:visible;"/>
	</clipPath>
	<g class="st32">
		<defs>
			<rect id="SVGID_67_" x="-1228.5" y="-333.2" width="2055.4" height="12029.6"/>
		</defs>
		<clipPath id="SVGID_68_">
			<use xlink:href="#SVGID_67_"  style="overflow:visible;"/>
		</clipPath>
		<rect x="242.9" y="744.7" class="st33" width="138.5" height="72.3"/>
	</g>
</g>
<g>
	<defs>
		<path id="SVGID_69_" d="M210.3,228.7c0,0-38.7-38.8-49.1-35.8c-10.4,3-10.4,17.9-10.4,17.9S118,215.2,121,322.7
			c3,107.4-26.8,119.4-16.4,125.3c10.4,6,129.5,32.8,134,6c4.5-26.9,3-129.8-8.9-162.6C217.7,258.5,202.8,237.6,210.3,228.7"/>
	</defs>
	<clipPath id="SVGID_70_">
		<use xlink:href="#SVGID_69_"  style="overflow:visible;"/>
	</clipPath>
	<g class="st34">
		<defs>
			<rect id="SVGID_71_" x="-1228.5" y="-333.2" width="2055.4" height="12029.6"/>
		</defs>
		<clipPath id="SVGID_72_">
			<use xlink:href="#SVGID_71_"  style="overflow:visible;"/>
		</clipPath>
		<rect x="92.3" y="182.7" class="st35" width="158.6" height="293.1"/>
	</g>
</g>
<g>
	<defs>
		<path id="SVGID_73_" d="M157.7,237.1c0,0-44.9,21-19.4,61.6c25.4,40.6,44.9,84.1,71.8,82.6c26.9-1.5,68.8-27,80.8-27
			c12,0-4.5-43.6-13.5-45.1c-9-1.5-50.9,24-50.9,24S211.6,231.1,157.7,237.1"/>
	</defs>
	<clipPath id="SVGID_74_">
		<use xlink:href="#SVGID_73_"  style="overflow:visible;"/>
	</clipPath>
	<g class="st36">
		<defs>
			<rect id="SVGID_75_" x="-1228.5" y="-333.2" width="2055.4" height="12029.6"/>
		</defs>
		<clipPath id="SVGID_76_">
			<use xlink:href="#SVGID_75_"  style="overflow:visible;"/>
		</clipPath>
		<rect x="120.4" y="226.8" class="st37" width="184.7" height="164.6"/>
	</g>
</g>
<g>
	<defs>
		<path id="SVGID_77_" d="M191.4,169.2c3.2-0.2,6.3,0.9,9.5,1.4c11.4,1.6,23.2-7.1,25.8-19c0.2-1.6,0.6-3.1,1.3-4.5
			c1.8-3,5.7-3.6,9-2.9c3.3,0.7,6.4,2.3,9.8,2.5c5.2,0.3,10.1-3.1,12.9-7.7c2.8-4.6,3.5-10.3,3.2-15.8l-2.5,2.8
			c-1-2.3-1.4-4.8-1.1-7.2c-2.7-0.8-5.5,0-7.5,2c-2.2,0.2-0.5-4.3-2.2-5.9c-0.7-0.7-1.7-0.5-2.6-0.5c-4.7,0-8.4-3.7-12.1-6.7
			c-6.4-5.2-13.8-8.8-21.7-10.5c-5.3-1.1-10.8-1.3-15.8,0.8c-4.1,1.7-7.5,4.8-10.7,8c-7.8,7.9-14.7,17.3-18,28.2
			c-2.6,8.9-2.7,18.5-0.2,27.5c1.3,4.7,5.3,20.7,11,21C186.7,183.1,182.3,169.8,191.4,169.2"/>
	</defs>
	<clipPath id="SVGID_78_">
		<use xlink:href="#SVGID_77_"  style="overflow:visible;"/>
	</clipPath>
	<g class="st38">
		<defs>
			<rect id="SVGID_79_" x="-1228.5" y="-333.2" width="2055.4" height="12029.6"/>
		</defs>
		<clipPath id="SVGID_80_">
			<use xlink:href="#SVGID_79_"  style="overflow:visible;"/>
		</clipPath>
		<rect x="156.6" y="86.3" class="st39" width="116.4" height="106.4"/>
	</g>
</g>
</svg>
