<?xml version="1.0" encoding="utf-8"?>
<!-- Generator: Adobe Illustrator 24.3.0, SVG Export Plug-In . SVG Version: 6.00 Build 0)  -->
<svg version="1.1" id="b41107ec-0743-407f-ab78-90e6ac5363b5"
	 xmlns="http://www.w3.org/2000/svg" xmlns:xlink="http://www.w3.org/1999/xlink" x="0px" y="0px" viewBox="0 0 521.3 450.8"
	 style="enable-background:new 0 0 521.3 450.8;" xml:space="preserve">
<style type="text/css">
	.st0{fill:#3F3D56;}
	.st1{fill:#6C63FF;}
	.st2{fill:#0A264C;}
	.st3{fill:#92B9A4;}
	.st4{fill:#FFFFFF;}
	.st5{fill:#B97550;}
	.st6{fill:#CCCCCC;}
	.st7{fill:#F2F2F2;}
	.st8{fill:#F2DCB8;}
	.st9{opacity:0.1;enable-background:new    ;}
	.st10{fill:#575A88;}
	.st11{fill:#5280A1;}
	.st12{fill:none;stroke:#2F2E41;stroke-miterlimit:10;}
</style>
<polygon class="st0" points="290.1,172.6 275.5,172.6 275.5,185.9 291.5,185.9 291.5,172.6 "/>
<path class="st1" d="M415.5,194.5c0.1,27.6-19.3,50.1-19.3,50.1s-19.6-22.3-19.8-49.9s19.3-50.1,19.3-50.1S415.4,166.8,415.5,194.5z
	"/>
<g>
	<path class="st2" d="M24.2,244.7c7.2,13.4,22.5,19.1,22.5,19.1s3.6-15.9-3.6-29.3s-22.5-19.1-22.5-19.1S16.9,231.3,24.2,244.7z"/>
	<path class="st3" d="M29.1,240.3c13,7.8,18,23.4,18,23.4s-16.1,2.9-29.1-5c-13-7.9-18-23.4-18-23.4S16.1,232.4,29.1,240.3z"/>
	<path class="st4" d="M521.3,144.6c0,53.1-31.6,71.5-70.4,71.5s-70.4-18.5-70.4-71.5s70.4-120.5,70.4-120.5S521.3,91.6,521.3,144.6z
		"/>
	<polygon class="st2" points="448.4,208.1 449.1,163.7 479.1,108.8 449.2,156.7 449.5,136.8 470.2,97.1 449.6,131.5 449.6,131.5 
		450.2,95.6 472.3,63.9 450.3,90 450.6,24.2 448.4,111.2 448.5,107.7 426,73.2 448.2,114.6 446.1,154.7 446.1,153.6 420,117.4 
		445.9,157.4 445.7,162.4 445.6,162.5 445.6,162.9 440.4,264.6 447.5,264.6 448.3,212 474.1,172.1 	"/>
	<circle class="st5" cx="109.2" cy="54.3" r="54.3"/>
	<polygon class="st2" points="40.3,156.4 32.3,143.1 106.7,79.4 298.1,79.4 298.1,98 229,172.4 149.3,188.3 	"/>
	<polygon class="st6" points="331,116.8 331,75.2 306,75.2 306,88.3 298.1,79.4 234.3,143.1 223.7,153.8 210.4,206.9 234.3,265.4 
		356.6,265.4 356.6,145.8 	"/>
	<rect x="32.3" y="143.1" class="st7" width="202" height="122.3"/>
	<rect x="163.9" y="181.7" class="st2" width="42.5" height="37.2"/>
	<rect x="109.4" y="180.4" class="st6" width="37.2" height="85"/>
	<polygon class="st2" points="66.9,193.6 66.9,180.4 50.9,180.4 50.9,193.6 65.6,193.6 	"/>
	<polygon class="st2" points="65.6,204.3 50.9,204.3 50.9,217.6 66.9,217.6 66.9,204.3 	"/>
	<rect x="77.5" y="180.4" class="st2" width="15.9" height="13.3"/>
	<rect x="77.5" y="204.3" class="st2" width="15.9" height="13.3"/>
	<polygon class="st2" points="291.5,195 291.5,181.7 275.5,181.7 275.5,195 290.1,195 	"/>
	<rect x="302.1" y="181.7" class="st2" width="15.9" height="13.3"/>
	<rect x="302.1" y="205.6" class="st2" width="15.9" height="13.3"/>
	<rect x="395.1" y="184.4" class="st2" width="2" height="79"/>
	<path class="st3" d="M415.5,194.5c0.1,27.6-19.3,50.1-19.3,50.1s-19.6-22.3-19.8-49.9s19.3-50.1,19.3-50.1S415.4,166.8,415.5,194.5
		z"/>
	<rect x="369.1" y="184.4" class="st2" width="2" height="79"/>
	<path class="st3" d="M389.5,194.5c0.1,27.6-19.3,50.1-19.3,50.1s-19.6-22.3-19.8-49.9s19.3-50.1,19.3-50.1S389.4,166.8,389.5,194.5
		z"/>
	<rect x="3.7" y="263.4" class="st2" width="517.6" height="1.2"/>
</g>
<path class="st2" d="M261.1,170.6c0,0,1,1.2-0.7,3.4s-0.3,7.2,3,7.3s5,1.5,4.1,3.4s-1.8,6.2,1.9,5.5s4.8,0.8,4.1,1.9
	s1.6-2.2,1.6-2.2s2,3,4.5,0.9s3.5-21.2-1.6-21.6S261.1,170.6,261.1,170.6z"/>
<polygon class="st8" points="286.8,261.5 288,269.6 293.1,269.6 291.4,260.4 "/>
<path class="st7" d="M293.7,264.7c0,0,6.9,6.3,5.2,6.9c-1.7,0.6-8.1,7.5-9.2,8.1c-1,0.5-12.1,4-10.4,0c1.3-2.6,3.3-4.8,5.8-6.3
	l1.2-6.9L293.7,264.7z"/>
<path class="st9" d="M293.7,264.7c0,0,6.9,6.3,5.2,6.9c-1.7,0.6-8.1,7.5-9.2,8.1c-1,0.5-12.1,4-10.4,0c1.3-2.6,3.3-4.8,5.8-6.3
	l1.2-6.9L293.7,264.7z"/>
<polygon class="st8" points="293.7,255.5 294.9,263.6 300.1,263.6 298.3,254.3 "/>
<path class="st8" d="M272,234l7.6-25c0,0-12.7-11.5-4-15s11,13.8,11,13.8l-2.9,30h-11.5L272,234z"/>
<path class="st3" d="M289.7,215.7c0,0-14.9,19.1-12.6,22s6.3,20.1,6.3,20.1s-0.6,6.9,1.7,6.9s8.1-1.2,8.1-2.9
	c0-1.7-5.2-23.7-5.2-23.7l15-19.6L289.7,215.7z"/>
<path class="st3" d="M290.8,216.8l15-8.1c0,0,10.4,5.2,7.5,9.8s-16.2,16.7-16.2,16.7s4,19.6,3.5,20.2c-0.5,0.6-6.9,2.9-8.7,2.3
	c-1.8-0.6-11-23.1-8.7-24.2s9.8-13.3,9.8-13.3L290.8,216.8z"/>
<path class="st6" d="M249.9,437.6c0,0,10.4,6.3,11.5,6.3s16.7,4,9.8,6.9s-33.5-1.2-32.9-2.9s0-12.1,1.2-12.1
	S249.9,437.6,249.9,437.6z"/>
<path class="st6" d="M261.4,436.6c0,0,10.4,6.3,11.5,6.3s16.7,4,9.8,6.9s-33.5-1.2-32.9-2.9s0-12.1,1.2-12.1
	S261.4,436.6,261.4,436.6z"/>
<path class="st10" d="M249.5,316.3c0,0,2.7,15.7,5.6,22c2.9,6.3-0.6,36.3-2.3,41s-18.5,59.4-13.3,60s15.6,0,15.6,0l16.7-52.5
	l-2.9-70.4L249.5,316.3z"/>
<path class="st2" d="M249.5,316.3c0,0,2.7,15.7,5.6,22c2.9,6.3-0.6,36.3-2.3,41s-18.5,59.4-13.3,60s15.6,0,15.6,0l16.7-52.5
	l-2.9-70.4L249.5,316.3z"/>
<path class="st2" d="M253.9,314.9c0,0,2.3,15.6,7.5,19c5.2,3.4,3.5,6.9,3.5,6.9l-2.3,30.6c0,0-22.5,55.4-15.6,62.3s13.3,4,16.2,3.5
	s8.1-12.7,5.2-16.2s5.8-24.2,8.1-27.7s0-8.1,2.9-9.2c2.9-1.1,9.2-8.7,9.2-13.8s8.1-60.6,2.9-64c-5.2-3.4-38.5,7.1-38.5,7.1
	L253.9,314.9z"/>
<circle class="st8" cx="243" cy="221.4" r="12.7"/>
<circle class="st8" cx="271.8" cy="175.3" r="10.4"/>
<path class="st8" d="M251.6,221.4c0,0,6.9,12.7,10.4,12.7s-13.8,13.3-13.8,13.3s-5.8-16.7-6.9-17.3S251.6,221.4,251.6,221.4z"/>
<path class="st11" d="M253.9,233c0,0-15,5.2-14.4,6.9s-4,5.8-4,7.5s-1.2,17.3,5.8,30s17.9,21.9,12.7,27.7
	c-5.2,5.8-13.3,15.6-4.6,15.6c8.7,0,22.5-12.7,35.2-8.1c12.7,4.6,9.8-12.7,9.8-12.7s1.7-13.3-1.7-17.3S277,249.7,277,246.2
	s-11.5-16.7-14.4-16.7S253.9,233,253.9,233z"/>
<path class="st12" d="M271.8,181.6"/>
<path class="st8" d="M274.7,181.6c0,0,4.7,8.9,4.9,10.5s8.3-10.5,8.3-10.5l-9.2-6.3L274.7,181.6z"/>
<path class="st5" d="M276.4,188.6l9.8-10.4l11.5,5.2c0,0,10.8,23.7,11.4,25.4s-17.2,9.8-18.9,9.8s-13.8-17.9-13.8-17.9
	S273.5,192,276.4,188.6z"/>
<polygon class="st8" points="271.8,202.4 271.8,212.8 278.7,212.8 276.4,202.4 "/>
<path class="st8" d="M275.7,210.2c-1.8,0-3.4,1.1-4.1,2.7c-0.5,1.2-0.3,2.5,1.8,3c4.6,1.2,5.2,0,5.2,0s8-1.2,6.3-3.5
	s-6.3-2.3-6.3-2.3L275.7,210.2L275.7,210.2z"/>
<path class="st7" d="M300.6,260.1c0,0,6.9,6.3,5.2,6.9c-1.7,0.6-8.1,7.5-9.2,8.1c-1,0.5-12.1,4-10.4,0c1.3-2.6,3.3-4.8,5.8-6.3
	l1.2-6.9L300.6,260.1z"/>
<path class="st2" d="M238.4,211.7c0.8-0.5,1.7-1,1.8-2c0-0.7-0.5-1.3-1.1-1.5s-1.3-0.3-2-0.3c-0.3,0-0.5,0-0.8,0.1
	c-0.7,0.2-1,0.9-1.6,1.3c-0.8,0.6-1.8,1-2.8,1.1c-1.6,0.4-3.2,1.1-4.6,1.9c-0.3,0.1-0.5,0.3-0.7,0.6c-0.2,0.5-0.3,1-0.3,1.5
	c-0.1,2-1.3,3.7-2.2,5.4c-0.9,1.8-1.5,3.9-0.4,5.6c0.4,0.5,0.8,1.1,1.1,1.6c0.7,1.5-0.2,3.4,0.3,5c0.2,0.6,0.6,1.2,1.1,1.7
	c1,1,2.3,1.8,3.6,2.2c1.3,0.4,2.9,0.7,3.5,1.9c0.1,0.6,0.3,1.1,0.5,1.7c0.5,0.6,1.2,0.9,1.9,1c0.8,0.2,1.6,0.2,2.5,0.2
	c0.8-0.1,1.6-0.5,2.1-1.1c0.2-0.5,0.5-0.9,0.9-1.3c0.8-0.7,2.1-0.1,3.2-0.3c0.9-0.2,1.6-0.8,1.8-1.7c0-0.5,0.2-0.9,0.4-1.3
	c0.7-0.9,2.4-0.3,2.9-1.2c0.3-0.6-0.3-1.3-0.9-1.7c-1-0.6-1.9-1.2-2.8-1.9c-0.9-0.7-1.4-1.9-1.2-3c0.4-1.7,2.6-2.6,2.7-4.3
	c-0.1-1-0.6-1.9-1.5-2.4c-0.8-0.5-1.6-1.1-2.4-1.7c-0.5-0.5-0.9-1.1-1.5-1.6c-1.1-0.7-2.4-1.1-3.7-1c-0.7-0.1-3.5-0.4-3.4-1.5
	C234.8,213.6,237.7,212.1,238.4,211.7z"/>
<path class="st5" d="M276.4,188c0,0-6.3,2.3-6.3,5.2s-2.9,12.1,0,12.1s8.7-2.2,8.7-2.2L276.4,188z"/>
<path class="st8" d="M274.7,229.5c0,0,16.7-5.8,17.3-5.8s8.7-4.6,8.1-6.3l-2.3-14.4c0,0-9.2-19-2.9-19s9.8,15,9.8,15
	s13.8,26,6.3,31.7s-38.7,16.2-40.4,14.4S274.7,229.5,274.7,229.5z"/>
<path class="st5" d="M290.8,192l3.9,3.8l-5,4.9c0,0-6.9-2.9-6.3-1.2s4,6.9,6.3,6.9s14.3-7.5,14.4-9.8s-7.4-10.4-9.2-11
	S290.8,192,290.8,192z"/>
<path class="st5" d="M283.5,188c0,0,8.5,7.5,9.6,7.5s3.3-11.2,3.3-11.2s-6.8-4.5-9.4-3.2S283.5,188,283.5,188z"/>
<path class="st11" d="M253.9,236.4c0,0,0-8.1,17.3-8.1h7.5l-3.5,19l-11.5,3.5L253.9,236.4z"/>
<path class="st2" d="M291.7,171.1c-1.7,0-3.4-0.1-5.1-0.3c-1.3-3.2-3-5.9-4.8-6.9c-1.5-1.1-3.1-2-4.9-2.7
	c-3.8-1.6-10.2-0.6-10.6,1.2c-7.6,3.6-5.7,10-5.7,10c1.2,2.5,3.8,1.4,6,0.3c0.4,1.8,2,3.2,3.9,3.4c3.7,0.1,5.5,1.7,4.6,3.7
	s-2,6.9,2.1,6.1s5.3,0.9,4.6,2.1s1.8-2.4,1.8-2.4s2.2,3.3,5,1c0.3-0.3,0.5-0.6,0.6-1c0.9,0.5,1.9,0.7,2.9,0.5
	c3.3-1.5,1.2-4.9,1.2-4.9s4.4-0.7,3-0.6s-2.3-1.7,0.1-5S293.9,171.2,291.7,171.1z"/>
<rect x="265.1" y="169.8" transform="matrix(0.3158 -0.9488 0.9488 0.3158 21.2114 370.7879)" class="st3" width="5.2" height="1.7"/>
</svg>
